<svg width="24" height="24" viewBox="0 0 24 24" fill="none" xmlns="http://www.w3.org/2000/svg">
<path fill-rule="evenodd" clip-rule="evenodd" d="M19.8478 5C21.0423 5 22 6.00474 22 7.23333V16.7667C22 17.9953 21.0423 19 19.8478 19H4.15217C2.9577 19 2 17.9953 2 16.7667V7.23333C2 6.00474 2.9577 5 4.15217 5H19.8478ZM21 11H3V16.7667C3 17.4534 3.521 18 4.15217 18H19.8478C20.479 18 21 17.4534 21 16.7667V11ZM21 9H3V10H21V9ZM19.8478 6H4.15217C3.521 6 3 6.54659 3 7.23333V8H21V7.23333C21 6.54659 20.479 6 19.8478 6ZM5.5 14C5.22386 14 5 13.7761 5 13.5C5 13.2239 5.22386 13 5.5 13H9.5C9.77614 13 10 13.2239 10 13.5C10 13.7761 9.77614 14 9.5 14H5.5ZM5.5 16C5.22386 16 5 15.7761 5 15.5C5 15.2239 5.22386 15 5.5 15H11.5C11.7761 15 12 15.2239 12 15.5C12 15.7761 11.7761 16 11.5 16H5.5Z" fill="#0071D1"/>
</svg>
