<svg width="24" height="24" viewBox="0 0 24 24" fill="none" xmlns="http://www.w3.org/2000/svg">
<path fill-rule="evenodd" clip-rule="evenodd" d="M11.8515 3.5C13.0502 3.5 14.03 4.45378 14.03 5.63844V6.515L15.2391 6.51502C15.7854 6.51502 16.2009 6.71674 16.72 7.15057L16.8971 7.30382C16.9619 7.36161 17.0324 7.42575 17.1632 7.54507C17.2305 7.60614 17.2836 7.65368 17.373 7.73545L21.8667 12.5914C21.9524 12.684 22 12.8058 22 12.9323V17.2122C22 17.9608 21.4017 18.5685 20.6597 18.5685L18.92 18.568L18.9174 18.6486C18.8409 19.6845 17.9751 20.4992 16.9229 20.4992C15.8463 20.4992 14.9647 19.646 14.9244 18.5757L8.97 18.575L8.96762 18.6467C8.89108 19.6826 8.02524 20.4973 6.97312 20.4973C5.89476 20.4973 5.0121 19.6415 4.97437 18.5688L3.34066 18.5685C2.59865 18.5685 2.0004 17.9608 2.0004 17.2122L2 5.63844C2 4.45378 2.97976 3.5 4.17854 3.5H11.8515ZM16.9229 17.4992C16.3629 17.4992 15.9111 17.9492 15.9111 18.4992C15.9111 19.0491 16.3629 19.4992 16.9229 19.4992C17.4829 19.4992 17.9348 19.0491 17.9348 18.4992C17.9348 17.9492 17.4829 17.4992 16.9229 17.4992ZM6.97312 17.4973C6.41312 17.4973 5.96126 17.9473 5.96126 18.4973C5.96126 19.0472 6.41312 19.4973 6.97312 19.4973C7.53311 19.4973 7.98497 19.0472 7.98497 18.4973C7.98497 17.9473 7.53311 17.4973 6.97312 17.4973ZM15.2391 7.51523H14.0339V14.0516C14.0339 14.3291 13.8095 14.5535 13.5338 14.5517L2.997 14.48L2.99715 14.6443C2.99715 14.6579 2.9966 14.6714 2.99551 14.6848L2.99392 17.2122C2.99392 17.4104 3.14935 17.5683 3.34066 17.5683H5.12602C5.15102 17.5683 5.17559 17.5702 5.19961 17.5737C5.53184 16.9343 6.20251 16.4973 6.97312 16.4973C7.74094 16.4973 8.40954 16.9312 8.74457 17.5683L15.0301 17.5683C15.0701 17.5683 15.1089 17.5731 15.1461 17.5821C15.4775 16.9389 16.15 16.4992 16.9229 16.4992C17.692 16.4992 18.3614 16.9344 18.696 17.5731L18.7482 17.5683H20.6597C20.851 17.5683 21.0065 17.4104 21.0065 17.2122V13.1291L16.684 8.45413C16.6271 8.4044 16.5695 8.3529 16.4979 8.28789C16.3647 8.16641 16.2988 8.10644 16.2385 8.05264C15.8 7.66177 15.5378 7.51523 15.2391 7.51523ZM11.8515 4.50021H4.17854C3.519 4.50021 2.99069 5.0145 2.99069 5.63844L2.996 13.479L13.0404 13.5481L13.04 7.286L13.0393 7.27578V5.63844C13.0393 5.0145 12.511 4.50021 11.8515 4.50021ZM15.4198 8.57965C15.6942 8.57965 15.9166 8.80355 15.9166 9.07975V11.5763H17.4615C17.7358 11.5763 17.9583 11.8002 17.9583 12.0764C17.9583 12.3526 17.7358 12.5765 17.4615 12.5765H15.4198C15.1454 12.5765 14.923 12.3526 14.923 12.0764V9.07975C14.923 8.80355 15.1454 8.57965 15.4198 8.57965Z" fill="#0071D1"/>
</svg>
