<svg width="24" height="24" viewBox="0 0 24 24" fill="none" xmlns="http://www.w3.org/2000/svg">
<path fill-rule="evenodd" clip-rule="evenodd" d="M12 18C11.448 18 11 17.551 11 17C11 16.449 11.448 16 12 16C12.552 16 13 16.449 13 17C13 17.551 12.552 18 12 18ZM12 2C17.5228 2 22 6.47715 22 12C22 17.5228 17.5228 22 12 22C9.9605 22 8.01097 21.3869 6.36505 20.2623C6.30066 20.2745 6.22133 20.2924 6.12895 20.3165C5.72186 20.4225 5.13122 20.6274 4.36838 20.9297L3.18746 21.3976C2.93073 21.4993 2.64015 21.3737 2.53843 21.117C2.48731 20.988 2.4921 20.8435 2.55165 20.7182L3.09676 19.5709C3.42974 18.87 3.65099 18.3222 3.75895 17.9418C3.78177 17.8614 3.79823 17.7929 3.80899 17.7378C2.63933 16.0711 2 14.0826 2 12C2 6.47715 6.47715 2 12 2ZM12 3C7.02944 3 3 7.02944 3 12C3 13.9994 3.65197 15.8465 4.75491 17.3403C4.96127 17.6198 4.70963 18.5064 4 20C5.59511 19.3679 6.50262 19.1316 6.72254 19.2911C8.20519 20.3661 10.0286 21 12 21C16.9706 21 21 16.9706 21 12C21 7.02944 16.9706 3 12 3ZM12 6C13.6525 6 15 7.31357 15 8.93327V9.52628C15 10.3111 14.6865 11.0489 14.1183 11.6036L13.1203 12.5766C12.7771 12.9111 12.5893 13.3531 12.5893 13.8238V14.4168C12.5893 14.7408 12.3234 15 12 15C11.6766 15 11.4107 14.7408 11.4107 14.4168V13.8238C11.4107 13.039 11.7242 12.3012 12.2924 11.7465L13.2904 10.7735C13.6336 10.439 13.8214 9.99703 13.8214 9.52628V8.93327C13.8214 7.96131 13.0062 7.16634 12 7.16634C10.9938 7.16634 10.1786 7.96131 10.1786 8.93327V9.71663C10.1786 10.0406 9.91272 10.2998 9.58929 10.2998C9.26585 10.2998 9 10.0406 9 9.71663V8.93327C9 7.31357 10.3475 6 12 6Z" fill="#0071D1"/>
</svg>
