<svg width="24" height="24" viewBox="0 0 24 24" fill="none" xmlns="http://www.w3.org/2000/svg">
<path fill-rule="evenodd" clip-rule="evenodd" d="M11.0189 2C11.3198 2 11.6134 2.06405 11.8821 2.18551C12.1834 2.32171 12.3167 2.675 12.1797 2.97463C12.0428 3.27425 11.6875 3.40673 11.3862 3.27054C11.2722 3.21904 11.1476 3.19186 11.0189 3.19186C10.6427 3.19186 10.3141 3.4259 10.1893 3.77028C10.1037 4.00665 9.87819 4.16422 9.62553 4.16422H7.55499C7.33722 4.16422 7.16346 4.33485 7.16346 4.54065V4.91708H11.6331C11.9641 4.91708 12.2324 5.18388 12.2324 5.51301C12.2324 5.84213 11.9641 6.10894 11.6331 6.10894H6.56417C6.23319 6.10894 5.96488 5.84213 5.96488 5.51301L5.964 5.221L4.46926 5.2216C4.33606 5.2216 4.23689 5.29243 4.20753 5.37484L4.19858 5.42521V20.6045C4.19858 20.7061 4.30942 20.8081 4.46926 20.8081H17.5307C17.6906 20.8081 17.8014 20.7061 17.8014 20.6045V11.5285C17.8014 11.1994 18.0697 10.9326 18.4007 10.9326C18.7317 10.9326 19 11.1994 19 11.5285V20.6045C19 21.3859 18.3327 22 17.5307 22H4.46926C3.66733 22 3 21.3859 3 20.6045V5.42521C3 4.64382 3.66733 4.02974 4.46926 4.02974H6.0354C6.04086 4.02974 6.0463 4.02981 6.05172 4.02995C6.266 3.41408 6.85925 2.97236 7.55499 2.97236H9.25395C9.62592 2.37973 10.2849 2 11.0189 2ZM15.3988 13.8969C15.7298 13.8969 15.9981 14.1637 15.9981 14.4928C15.9981 14.8219 15.7298 15.0887 15.3988 15.0887H11.5684C11.2374 15.0887 10.9691 14.8219 10.9691 14.4928C10.9691 14.1637 11.2374 13.8969 11.5684 13.8969H15.3988ZM9.48606 11.0318C9.76188 11.0318 9.98547 11.2541 9.98547 11.5284V14.5855C9.98547 14.8597 9.76188 15.0821 9.48606 15.0821H6.49961C6.22379 15.0821 6.0002 14.8597 6.0002 14.5855V11.5284C6.0002 11.2541 6.22379 11.0318 6.49961 11.0318H9.48606ZM8.98665 12.025H6.99901V14.0889H8.98665V12.025ZM15.3988 11.0258C15.7298 11.0258 15.9981 11.2926 15.9981 11.6217C15.9981 11.9509 15.7298 12.2177 15.3988 12.2177H11.5684C11.2374 12.2177 10.9691 11.9509 10.9691 11.6217C10.9691 11.2926 11.2374 11.0258 11.5684 11.0258H15.3988ZM17.0004 2.0679C19.2095 2.0679 21.0004 3.85876 21.0004 6.0679C21.0004 8.27704 19.2095 10.0679 17.0004 10.0679C14.7906 10.0679 13.0004 8.27737 13.0004 6.0679C13.0004 3.85843 14.7906 2.0679 17.0004 2.0679ZM17.0004 3.0679C15.3429 3.0679 14.0004 4.41068 14.0004 6.0679C14.0004 7.72513 15.3429 9.0679 17.0004 9.0679C18.6573 9.0679 20.0004 7.72476 20.0004 6.0679C20.0004 4.41104 18.6573 3.0679 17.0004 3.0679ZM18.2191 4.66593C18.4143 4.47062 18.7309 4.47055 18.9262 4.66576C19.1215 4.86098 19.1216 5.17756 18.9263 5.37287L16.8293 7.47087C16.6341 7.66621 16.3174 7.66625 16.1221 7.47095L15.0731 6.42195C14.8779 6.22669 14.8779 5.91011 15.0731 5.71485C15.2684 5.51958 15.585 5.51958 15.7803 5.71485L16.4756 6.41021L18.2191 4.66593Z" fill="#0071D1"/>
</svg>
