<svg width="24" height="24" viewBox="0 0 24 24" fill="none" xmlns="http://www.w3.org/2000/svg">
<path fill-rule="evenodd" clip-rule="evenodd" d="M20.8119 12C20.8119 7.13345 16.8666 3.18812 12 3.18812C7.13345 3.18812 3.18812 7.13345 3.18812 12C3.18812 16.8666 7.13345 20.8119 12 20.8119C16.8666 20.8119 20.8119 16.8666 20.8119 12ZM22 12C22 17.5227 17.5227 22 12 22C6.47727 22 2 17.5227 2 12C2 6.47727 6.47727 2 12 2C17.5227 2 22 6.47727 22 12ZM12 18C11.448 18 11 17.551 11 17C11 16.449 11.448 16 12 16C12.552 16 13 16.449 13 17C13 17.551 12.552 18 12 18ZM12 15C11.6766 15 11.4107 14.7408 11.4107 14.4168V13.8238C11.4107 13.039 11.7242 12.3012 12.2924 11.7465L13.2904 10.7735C13.6336 10.439 13.8214 9.99703 13.8214 9.52628V8.93327C13.8214 7.96131 13.0062 7.16634 12 7.16634C10.9938 7.16634 10.1786 7.96131 10.1786 8.93327V9.71663C10.1786 10.0406 9.91272 10.2998 9.58929 10.2998C9.26585 10.2998 9 10.0406 9 9.71663V8.93327C9 7.31357 10.3475 6 12 6C13.6525 6 15 7.31357 15 8.93327V9.52628C15 10.3111 14.6865 11.0489 14.1183 11.6036L13.1203 12.5766C12.7771 12.9111 12.5893 13.3531 12.5893 13.8238V14.4168C12.5893 14.7408 12.3234 15 12 15Z" fill="#0071D1"/>
</svg>
