<svg width="24" height="24" viewBox="0 0 24 24" fill="none" xmlns="http://www.w3.org/2000/svg">
<path fill-rule="evenodd" clip-rule="evenodd" d="M5.856 22H12.144C13.733 22 15 20.665 15 19.039V17.148C15 16.885 14.776 16.671 14.5 16.671C14.224 16.671 14 16.885 14 17.148V17.5H4V6H14V6.617C14 6.879 14.224 7.093 14.5 7.093C14.776 7.093 15 6.879 15 6.617V4.96C15 3.335 13.733 2 12.144 2H5.856C4.267 2 3 3.335 3 4.96V19.039C3 20.664 4.267 22 5.856 22ZM4 18.5H14V19.039C14 20.159 13.157 21.047 12.144 21.047H5.856C4.843 21.047 4 20.159 4 19.039V18.5ZM4 4.96C4 3.841 4.843 2.953 5.856 2.953H12.144C13.157 2.953 14 3.84 14 4.96V5H4V4.96ZM10 3.5H8C7.724 3.5 7.5 3.724 7.5 4C7.5 4.276 7.724 4.5 8 4.5H10C10.276 4.5 10.5 4.276 10.5 4C10.5 3.724 10.276 3.5 10 3.5ZM8.999 20.5024C9.413 20.5024 9.749 20.1654 9.749 19.7504C9.749 19.3354 9.413 19.0004 8.999 19.0004C8.586 19.0004 8.25 19.3354 8.25 19.7504C8.25 20.1654 8.586 20.5024 8.999 20.5024ZM16.4995 15.6001C14.5115 15.6001 12.8995 13.9891 12.8995 11.9991C12.8995 10.0111 14.5105 8.4001 16.4995 8.4001C18.4885 8.4001 20.1005 10.0111 20.1005 11.9991C20.1005 13.9891 18.4885 15.6001 16.4995 15.6001ZM16.4995 7.5001C14.0135 7.5001 11.9995 9.5141 11.9995 11.9991C11.9995 14.4861 14.0145 16.5001 16.4995 16.5001C18.9855 16.5001 20.9995 14.4861 20.9995 11.9991C20.9995 9.5141 18.9855 7.5001 16.4995 7.5001ZM16.5 9.75C16.7761 9.75 17 9.97495 17 10.2524V11.545L18.1949 11.5454C18.4429 11.5454 18.6491 11.7223 18.6919 11.9555L18.7 12.0454C18.7 12.3216 18.4739 12.5454 18.1949 12.5454L17 12.545V13.7476C17 13.9942 16.8231 14.1994 16.5899 14.2419L16.5 14.25C16.2239 14.25 16 14.0251 16 13.7476V12.545L14.7051 12.5454C14.4571 12.5454 14.2509 12.3685 14.2081 12.1353L14.2 12.0454C14.2 11.7693 14.4262 11.5454 14.7051 11.5454L16 11.545V10.2524C16 10.0058 16.1769 9.80064 16.4101 9.75809L16.5 9.75Z" fill="#0071D1"/>
</svg>
