<svg width="24" height="24" viewBox="0 0 24 24" fill="none" xmlns="http://www.w3.org/2000/svg">
<path fill-rule="evenodd" clip-rule="evenodd" d="M15.1433 2C16.7335 2 18 3.33496 18 4.96017V19.039C18 20.6643 16.7334 22 15.1433 22H8.85673C7.26714 22 6 20.664 6 19.039V4.96017C6 3.33524 7.26704 2 8.85673 2H15.1433ZM17 18.5H7V19.039C7 20.1584 7.84339 21.0476 8.85673 21.0476H15.1433C16.1571 21.0476 17 20.1587 17 19.039V18.5ZM12.0132 19C12.4356 19 12.778 19.3424 12.778 19.7648C12.778 20.1872 12.4356 20.5312 12.0132 20.5312C11.5924 20.5312 11.25 20.1872 11.25 19.7648C11.25 19.3424 11.5924 19 12.0132 19ZM17 6H7V17.5H17V6ZM15.1433 2.95238H8.85673C7.84317 2.95238 7 3.84093 7 4.96017V5H17V4.96017C17 3.84061 16.1573 2.95238 15.1433 2.95238ZM13 3.5C13.2761 3.5 13.5 3.72386 13.5 4C13.5 4.27614 13.2761 4.5 13 4.5H11C10.7239 4.5 10.5 4.27614 10.5 4C10.5 3.72386 10.7239 3.5 11 3.5H13Z" fill="#0071D1"/>
</svg>
