<svg width="24" height="24" viewBox="0 0 24 24" fill="none" xmlns="http://www.w3.org/2000/svg">
<path fill-rule="evenodd" clip-rule="evenodd" d="M8.63371 2L17.7616 2.03205C18.9919 2.03205 20 2.98645 20 4.18138V19.8497C20 21.0447 18.9918 22 17.7616 22H6.23839C5.00821 22 4 21.0447 4 19.8497V6.65522C4 6.52224 4.05254 6.39472 4.14603 6.30078L8.28058 2.14634C8.37426 2.0522 8.50135 1.99954 8.63371 2ZM8.83701 3.00228L4.99484 6.86293V19.8497C4.99484 20.4775 5.54461 20.9985 6.23839 20.9985H17.7616C18.4554 20.9985 19.0052 20.4775 19.0052 19.8497V4.18138C19.0052 3.55382 18.4557 3.03361 17.7599 3.0336L16 3.027V5.49635C16 5.74375 15.8231 5.94951 15.5899 5.99218L15.5 6.0003C15.2239 6.0003 15 5.77467 15 5.49635V3.024L11.02 3.01L11.0205 5.52755C11.0205 5.77495 10.8436 5.98071 10.6104 6.02338L10.5205 6.0315C10.2444 6.0315 10.0205 5.80587 10.0205 5.52755L10.02 3.006L8.83701 3.00228ZM9.29886 8.969C8.64983 8.969 8.0942 9.43346 8.0942 10.0478V15.8902C8.0942 16.5045 8.64983 16.969 9.29886 16.969H14.8885C15.5376 16.969 16.0942 16.5046 16.0942 15.8902V10.0478C16.0942 9.43337 15.5376 8.969 14.8885 8.969H9.29886ZM9.29886 9.95873H14.8885C15.0104 9.95873 15.081 10.0177 15.081 10.0478V15.8902C15.081 15.9203 15.0104 15.9793 14.8885 15.9793H9.29886C9.17739 15.9793 9.10737 15.9207 9.10737 15.8902V10.0478C9.10737 10.0173 9.17739 9.95873 9.29886 9.95873Z" fill="#0071D1"/>
</svg>
