<svg width="24" height="24" viewBox="0 0 24 24" fill="none" xmlns="http://www.w3.org/2000/svg">
<path fill-rule="evenodd" clip-rule="evenodd" d="M12 4.6L9.7888 9.24811C9.70603 9.42211 9.54142 9.5428 9.35074 9.5693L4.6 10.2296L8.1212 13.923C8.24887 14.0569 8.30405 14.2443 8.26937 14.4261L7.32063 19.4L11.7345 17.0858C11.9008 16.9986 12.0992 16.9986 12.2655 17.0858L16.6794 19.4L15.7306 14.4261C15.6959 14.2443 15.7511 14.0569 15.8788 13.923L19.4 10.2296L14.6493 9.5693C14.4586 9.5428 14.294 9.42211 14.2112 9.24811L12 4.6ZM8.94181 8.67563L11.4922 3.32061C11.6958 2.89313 12.3042 2.89313 12.5078 3.32061L15.0582 8.67563L20.5142 9.43306C20.9684 9.4961 21.1603 10.0468 20.8438 10.3785L16.8252 14.5888L17.9217 20.3308C18.01 20.7931 17.5253 21.1529 17.1083 20.9345L12 18.2593L6.8917 20.9345C6.47474 21.1529 5.98999 20.7931 6.07828 20.3308L7.17476 14.5888L3.15622 10.3785C2.83966 10.0468 3.03162 9.4961 3.48576 9.43306L8.94181 8.67563Z" fill="#0071D1"/>
</svg>
