<svg width="24" height="24" viewBox="0 0 24 24" fill="none" xmlns="http://www.w3.org/2000/svg">
<path fill-rule="evenodd" clip-rule="evenodd" d="M12 2C17.5227 2 22 6.47727 22 12C22 17.5227 17.5227 22 12 22C6.47727 22 2 17.5227 2 12C2 6.47727 6.47727 2 12 2ZM12 3.18812C7.13345 3.18812 3.18812 7.13345 3.18812 12C3.18812 16.8666 7.13345 20.8119 12 20.8119C16.8666 20.8119 20.8119 16.8666 20.8119 12C20.8119 7.13345 16.8666 3.18812 12 3.18812ZM12 12C14.7614 12 17 14.4625 17 17.5C17 17.7761 16.7965 18 16.5455 18C16.2944 18 16.0909 17.7761 16.0909 17.5C16.0909 15.0148 14.2593 13 12 13C9.74071 13 7.90909 15.0148 7.90909 17.5C7.90909 17.7761 7.70558 18 7.45455 18C7.20351 18 7 17.7761 7 17.5C7 14.4625 9.23863 12 12 12ZM12 5C13.6566 5 15 6.3434 15 8C15 9.6566 13.6566 11 12 11C10.3434 11 9 9.6566 9 8C9 6.3434 10.3434 5 12 5ZM12 6C10.8957 6 10 6.89568 10 8C10 9.10432 10.8957 10 12 10C13.1043 10 14 9.10432 14 8C14 6.89568 13.1043 6 12 6Z" fill="#0071D1"/>
</svg>
