<svg width="24" height="24" viewBox="0 0 24 24" fill="none" xmlns="http://www.w3.org/2000/svg">
<path fill-rule="evenodd" clip-rule="evenodd" d="M4.942 18H19.057V4.996H4.942V18ZM19.057 19.88C19.057 20.516 18.436 21.059 17.642 21.059H6.358C5.564 21.059 4.942 20.516 4.942 19.88V18.996H19.057V19.88ZM6.358 2.942H17.642C18.384 2.942 18.969 3.419 19.042 4H4.957C5.031 3.419 5.615 2.942 6.358 2.942ZM20 4.996V4H19.986C19.915 2.874 18.885 2 17.642 2H6.358C5.114 2 4.085 2.874 4.014 4H4V4.996V18V18.996V19.88C4 21.066 5.069 22 6.358 22H17.642C18.931 22 20 21.066 20 19.88V18.996V18V4.996ZM11.9888 20.6484C12.3458 20.6484 12.6368 20.3584 12.6368 20.0014C12.6368 19.6444 12.3458 19.3544 11.9888 19.3544C11.6318 19.3544 11.3388 19.6434 11.3388 20.0014C11.3388 20.3594 11.6318 20.6484 11.9888 20.6484Z" fill="#0071D1"/>
</svg>
