<svg width="24" height="24" viewBox="0 0 24 24" fill="none" xmlns="http://www.w3.org/2000/svg">
<path fill-rule="evenodd" clip-rule="evenodd" d="M11.5007 2C12.4473 2 13.2007 2.80727 13.2007 3.78571V4.68286L13.1944 4.75301C15.6712 5.51269 17.4744 7.89606 17.4744 10.7121V12.9152C17.4744 14.262 17.825 15.5828 18.4883 16.7357L19.9342 19.2508C20.1258 19.5841 19.8852 20 19.5007 20L13.9506 20.0004C13.7188 21.1413 12.7101 22 11.5007 22C10.2914 22 9.28264 21.1413 9.05084 20.0004L3.50074 20C3.11625 20 2.87564 19.5841 3.06727 19.2508L4.51325 16.7356C5.17652 15.5828 5.52706 14.262 5.52706 12.9152V10.7121C5.52706 7.89758 7.32836 5.51526 9.80309 4.75424C9.80126 4.74229 9.80074 4.72912 9.80074 4.71582V3.78571C9.80074 2.80727 10.5542 2 11.5007 2ZM12.9151 20.0007H10.0863C10.2925 20.5829 10.8479 21 11.5007 21C12.1536 21 12.709 20.5829 12.9151 20.0007ZM11.5007 5.5C8.75861 5.5 6.52706 7.82876 6.52706 10.7121V12.9152C6.52706 14.4364 6.13086 15.9293 5.38011 17.2341L4.36492 19H18.6366L17.6215 17.2343C16.8706 15.9293 16.4744 14.4364 16.4744 12.9152V10.7121C16.4744 7.82876 14.2429 5.5 11.5007 5.5ZM11.5007 3C11.1225 3 10.8007 3.34473 10.8007 3.78571L10.8006 4.54217C11.0302 4.51432 11.2638 4.5 11.5007 4.5C11.7376 4.5 11.9711 4.51431 12.2007 4.54214L12.2007 3.78571C12.2007 3.34473 11.879 3 11.5007 3Z" fill="#0071D1"/>
</svg>
