<svg width="24" height="24" viewBox="0 0 24 24" fill="none" xmlns="http://www.w3.org/2000/svg">
<path fill-rule="evenodd" clip-rule="evenodd" d="M19.8478 5C21.0423 5 22 6.00474 22 7.23333V16.7667C22 17.9953 21.0423 19 19.8478 19H4.15217C2.9577 19 2 17.9953 2 16.7667V7.23333C2 6.00474 2.9577 5 4.15217 5H19.8478ZM19.8478 6H4.15217C3.521 6 3 6.54659 3 7.23333V16.7667C3 17.4534 3.521 18 4.15217 18H19.8478C20.479 18 21 17.4534 21 16.7667V7.23333C21 6.54659 20.479 6 19.8478 6ZM8 12.25C9.75089 12.25 11.15 13.8046 11.15 15.7C11.15 15.9485 10.9485 16.15 10.7 16.15C10.4515 16.15 10.25 15.9485 10.25 15.7C10.25 14.2817 9.23145 13.15 8 13.15C6.76855 13.15 5.75 14.2817 5.75 15.7C5.75 15.9485 5.54853 16.15 5.3 16.15C5.05147 16.15 4.85 15.9485 4.85 15.7C4.85 13.8046 6.24911 12.25 8 12.25ZM18.5 14C18.7761 14 19 14.2239 19 14.5C19 14.7761 18.7761 15 18.5 15H13.5C13.2239 15 13 14.7761 13 14.5C13 14.2239 13.2239 14 13.5 14H18.5ZM18.5 11.5C18.7761 11.5 19 11.7239 19 12C19 12.2761 18.7761 12.5 18.5 12.5H13.5C13.2239 12.5 13 12.2761 13 12C13 11.7239 13.2239 11.5 13.5 11.5H18.5ZM8 7.9C9.04934 7.9 9.9 8.75066 9.9 9.8C9.9 10.8493 9.04934 11.7 8 11.7C6.95066 11.7 6.1 10.8493 6.1 9.8C6.1 8.75066 6.95066 7.9 8 7.9ZM8 8.8C7.44772 8.8 7 9.24772 7 9.8C7 10.3523 7.44772 10.8 8 10.8C8.55228 10.8 9 10.3523 9 9.8C9 9.24772 8.55228 8.8 8 8.8ZM16.5 9C16.7761 9 17 9.22386 17 9.5C17 9.77614 16.7761 10 16.5 10H13.5C13.2239 10 13 9.77614 13 9.5C13 9.22386 13.2239 9 13.5 9H16.5Z" fill="#0071D1"/>
</svg>
