<svg width="24" height="24" viewBox="0 0 24 24" fill="none" xmlns="http://www.w3.org/2000/svg">
<path fill-rule="evenodd" clip-rule="evenodd" d="M11.9998 2C17.5263 2 21.9993 6.71153 21.9993 12.5164V15.375C21.9993 15.4812 21.9674 15.5799 21.9129 15.6616C21.9694 15.9708 22 16.2892 22 16.6124C22 19.497 19.5609 22 16.9212 22C16.9007 22 16.8805 21.9987 16.8607 21.9963L16.7326 22C15.8019 22 15.022 21.3009 15.022 20.4053V12.8184C15.022 11.9221 15.8016 11.2238 16.7326 11.2238L16.868 11.2288L16.9212 11.2238C18.5198 11.2238 20.0448 12.1418 20.9991 13.5068L20.9983 12.5164C20.9983 7.26757 16.966 3.02017 11.9998 3.02017C7.03363 3.02017 3.00125 7.26757 3.00125 12.5164L3.00111 13.5062C3.95542 12.1416 5.48035 11.2238 7.07882 11.2238C7.0993 11.2238 7.11949 11.225 7.13932 11.2274C7.18718 11.2257 7.23644 11.2238 7.28612 11.2238C8.21714 11.2238 8.99675 11.9221 8.99675 12.8184V20.4053C8.99675 21.3009 8.21679 22 7.28612 22L7.144 21.9938L7.07882 22C4.50497 22 2.12207 19.6204 2.00454 16.827L2 16.6113C2 16.2889 2.03048 15.9712 2.0883 15.6613C2.03244 15.5807 2.0003 15.4817 2.0003 15.375V12.5164C2.0003 6.71153 6.47331 2 11.9998 2ZM16.7326 12.2439C16.3277 12.2439 16.0229 12.5169 16.0229 12.8184V20.4053C16.0229 20.7062 16.3282 20.9798 16.7326 20.9798C17.137 20.9798 17.4423 20.7062 17.4423 20.4053V12.8184C17.4423 12.5169 17.1375 12.2439 16.7326 12.2439ZM7.28612 12.2439C6.88122 12.2439 6.57645 12.5169 6.57645 12.8184V20.4053C6.57645 20.7062 6.8817 20.9798 7.28612 20.9798C7.69054 20.9798 7.9958 20.7062 7.9958 20.4053V12.8184C7.9958 12.5169 7.69102 12.2439 7.28612 12.2439ZM5.59358 12.5842L5.43189 12.6643C4.05486 13.3799 3.00095 14.9221 3.00095 16.6113C3.00095 18.3672 4.13865 19.9639 5.59451 20.6393C5.58168 20.5632 5.5755 20.485 5.5755 20.4053V12.8184C5.5755 12.7387 5.58167 12.6604 5.59358 12.5842ZM18.4256 12.5938L18.4368 12.6786C18.4411 12.7246 18.4432 12.7713 18.4432 12.8184V20.4053C18.4432 20.4816 18.4376 20.5564 18.4266 20.6295C19.8717 19.9493 20.999 18.3595 20.999 16.6124C20.999 14.8647 19.8718 13.2746 18.4256 12.5938Z" fill="#0071D1"/>
</svg>
