<svg width="24" height="24" viewBox="0 0 24 24" fill="none" xmlns="http://www.w3.org/2000/svg">
<path fill-rule="evenodd" clip-rule="evenodd" d="M7.17 20C7.084 20 6.997 19.976 6.919 19.925C4.464 18.293 3 15.603 3 12.728C3 7.915 7.037 4 12 4C16.962 4 21 7.915 21 12.728C21 15.601 19.534 18.292 17.08 19.923C16.877 20.059 16.599 20.007 16.461 19.808C16.321 19.608 16.374 19.337 16.579 19.202C18.788 17.732 20.108 15.311 20.108 12.728C20.108 8.396 16.47 4.873 12 4.873C7.528 4.873 3.892 8.396 3.892 12.728C3.892 15.313 5.212 17.734 7.421 19.203C7.625 19.338 7.678 19.61 7.539 19.809C7.453 19.933 7.313 20 7.17 20ZM8.43 18.2161C8.343 18.2161 8.257 18.192 8.18 18.141C6.333 16.914 5.231 14.89 5.231 12.728C5.231 9.108 8.267 6.163 11.999 6.163C15.732 6.163 18.767 9.108 18.767 12.728C18.767 14.89 17.666 16.914 15.82 18.141C15.615 18.276 15.339 18.224 15.2 18.025C15.062 17.826 15.115 17.554 15.319 17.419C16.92 16.355 17.875 14.601 17.875 12.728C17.875 9.588 15.239 7.035 11.999 7.035C8.759 7.035 6.124 9.588 6.124 12.728C6.124 14.601 7.079 16.355 8.681 17.419C8.885 17.555 8.938 17.826 8.799 18.025C8.712 18.149 8.573 18.2161 8.43 18.2161ZM9.69 16.433C9.603 16.433 9.516 16.409 9.439 16.358C8.201 15.535 7.462 14.177 7.462 12.727C7.462 10.299 9.498 8.325 11.999 8.325C14.501 8.325 16.536 10.299 16.536 12.727C16.536 14.177 15.797 15.534 14.56 16.357C14.356 16.493 14.078 16.44 13.941 16.242C13.802 16.042 13.855 15.771 14.059 15.636C15.052 14.976 15.644 13.889 15.644 12.727C15.644 10.781 14.009 9.197 11.999 9.197C9.989 9.197 8.355 10.781 8.355 12.727C8.355 13.888 8.947 14.976 9.941 15.636C10.144 15.771 10.197 16.043 10.059 16.242C9.972 16.366 9.832 16.433 9.69 16.433ZM11.938 14.2C11.111 14.2 10.438 13.527 10.438 12.699C10.438 11.873 11.111 11.2 11.938 11.2C12.765 11.2 13.438 11.873 13.438 12.699C13.438 13.527 12.765 14.2 11.938 14.2ZM11.938 12.057C11.583 12.057 11.295 12.345 11.295 12.699C11.295 13.055 11.583 13.343 11.938 13.343C12.293 13.343 12.581 13.055 12.581 12.699C12.581 12.345 12.293 12.057 11.938 12.057Z" fill="#0071D1"/>
</svg>
