<svg width="25" height="24" viewBox="0 0 25 24" fill="none" xmlns="http://www.w3.org/2000/svg">
<path fill-rule="evenodd" clip-rule="evenodd" d="M12.5 2C18.0227 2 22.5 6.47727 22.5 12C22.5 17.5227 18.0227 22 12.5 22C6.97727 22 2.5 17.5227 2.5 12C2.5 6.47727 6.97727 2 12.5 2ZM12.5 3.18812C7.63345 3.18812 3.68812 7.13345 3.68812 12C3.68812 16.8666 7.63345 20.8119 12.5 20.8119C17.3666 20.8119 21.3119 16.8666 21.3119 12C21.3119 7.13345 17.3666 3.18812 12.5 3.18812ZM12.5 12C15.2614 12 17.5 14.4625 17.5 17.5C17.5 17.7761 17.2965 18 17.0455 18C16.7944 18 16.5909 17.7761 16.5909 17.5C16.5909 15.0148 14.7593 13 12.5 13C10.2407 13 8.40909 15.0148 8.40909 17.5C8.40909 17.7761 8.20558 18 7.95455 18C7.70351 18 7.5 17.7761 7.5 17.5C7.5 14.4625 9.73863 12 12.5 12ZM12.5 5C14.1566 5 15.5 6.3434 15.5 8C15.5 9.6566 14.1566 11 12.5 11C10.8434 11 9.5 9.6566 9.5 8C9.5 6.3434 10.8434 5 12.5 5ZM12.5 6C11.3957 6 10.5 6.89568 10.5 8C10.5 9.10432 11.3957 10 12.5 10C13.6043 10 14.5 9.10432 14.5 8C14.5 6.89568 13.6043 6 12.5 6Z" fill="#F2F7F9"/>
</svg>
