<svg width="24" height="24" viewBox="0 0 24 24" fill="none" xmlns="http://www.w3.org/2000/svg">
<path fill-rule="evenodd" clip-rule="evenodd" d="M2.69522 13.3327L2.77912 13.3631L5.41776 14.5916C5.6681 14.7082 5.77655 15.0056 5.65999 15.256C5.55639 15.4785 5.30987 15.5889 5.08055 15.5288L4.99567 15.4982L3.45139 14.779L3.46924 14.8339C4.66139 18.4771 8.07861 21.0046 11.9892 21.0046C16.1605 21.0046 19.7531 18.132 20.7084 14.1298C20.7654 13.8911 20.9848 13.7336 21.2215 13.7466L21.3108 13.7596C21.5794 13.8237 21.7452 14.0934 21.6811 14.362C20.6189 18.8119 16.6259 22.0046 11.9892 22.0046C7.62437 22.0046 3.81295 19.1722 2.5026 15.0948L1.74626 16.6528C1.63902 16.8736 1.39072 16.98 1.16242 16.9161L1.07805 16.8841C0.857258 16.7769 0.7509 16.5286 0.814725 16.3003L0.846745 16.2159L2.11832 13.5979C2.22432 13.3797 2.46848 13.2728 2.69522 13.3327ZM11.9859 6.01269C12.2314 6.01269 12.4355 6.18611 12.4779 6.4148L12.4859 6.50292L12.4863 7.03611C14.3451 7.1914 15.851 8.20886 15.9822 9.57256C16.0084 9.84431 15.8063 10.0855 15.5308 10.1113C15.2554 10.1371 15.0109 9.93776 14.9847 9.66601C14.9088 8.87729 13.8685 8.16837 12.4863 8.02883L12.4863 11.5986C12.5912 11.6163 12.694 11.6342 12.7646 11.6477C13.1464 11.7207 13.502 11.809 13.8415 11.9231C15.1552 12.3645 15.9845 13.1086 15.9845 14.2693C15.9845 15.7163 14.4328 16.8287 12.4867 16.9942L12.4859 17.5225C12.4859 17.7932 12.2621 18.0127 11.9859 18.0127C11.7405 18.0127 11.5363 17.8393 11.494 17.6106L11.4859 17.5225L11.4856 16.9949C9.62796 16.8398 8.1227 15.8244 7.98695 14.461C7.9599 14.1893 8.1612 13.9475 8.43656 13.9208C8.71193 13.8941 8.95709 14.0927 8.98414 14.3644C9.06284 15.1546 10.1036 15.8628 11.4857 16.0022L11.486 12.4371C11.3826 12.4196 11.2817 12.402 11.2123 12.3887C10.8297 12.3154 10.4731 12.2267 10.1327 12.1123C8.81587 11.6697 7.98451 10.9252 7.98451 9.7646C7.98451 8.31411 9.53734 7.20178 11.4858 7.03668L11.4859 6.50292C11.4859 6.23217 11.7098 6.01269 11.9859 6.01269ZM12.487 12.6023L12.4864 16.0014C13.9252 15.8541 14.9825 15.0897 14.9825 14.2693C14.9825 13.6371 14.4723 13.1794 13.5185 12.8589C13.2271 12.7609 12.9143 12.6832 12.574 12.6182C12.5493 12.6135 12.5197 12.6081 12.487 12.6023ZM11.4854 8.02948C10.0446 8.1767 8.98654 8.94119 8.98654 9.7646C8.98654 10.3962 9.49876 10.8549 10.4558 11.1766C10.7482 11.2749 11.0621 11.3529 11.4032 11.4182C11.4266 11.4227 11.4544 11.4278 11.4851 11.4333L11.4854 8.02948ZM11.9895 2C16.2599 2 20.0049 4.71154 21.3912 8.658L22.0712 7.25626C22.1918 7.00787 22.491 6.90431 22.7394 7.02495C22.9602 7.13219 23.0665 7.38049 23.0027 7.60879L22.9707 7.69316L21.6991 10.3112C21.5931 10.5294 21.349 10.6362 21.1222 10.5764L21.0383 10.546L18.3997 9.31742C18.1493 9.20087 18.0409 8.90344 18.1574 8.6531C18.2611 8.43058 18.5076 8.32017 18.7369 8.38024L18.8218 8.41087L20.5174 9.201L20.4655 9.04062C19.233 5.46308 15.8497 3 11.9895 3C7.90347 3 4.36418 5.7574 3.32729 9.64822C3.25618 9.91505 2.98223 10.0737 2.7154 10.0026C2.44857 9.93149 2.28991 9.65754 2.36102 9.39071C3.51389 5.06468 7.4476 2 11.9895 2Z" fill="#0071D1"/>
</svg>
