<svg width="24" height="24" viewBox="0 0 24 24" fill="none" xmlns="http://www.w3.org/2000/svg">
<path fill-rule="evenodd" clip-rule="evenodd" d="M19 3C20.1046 3 21 3.89543 21 5V19C21 20.1046 20.1046 21 19 21H5C3.89543 21 3 20.1046 3 19V5C3 3.89543 3.89543 3 5 3H19ZM19 4H5C4.44772 4 4 4.44772 4 5V19C4 19.5523 4.44772 20 5 20H19C19.5523 20 20 19.5523 20 19V5C20 4.44772 19.5523 4 19 4ZM8 15C8.552 15 9 15.447 9 16C9 16.552 8.552 17 8 17C7.447 17 7 16.552 7 16C7 15.447 7.447 15 8 15ZM16.5 15.5C16.7761 15.5 17 15.7239 17 16C17 16.2761 16.7761 16.5 16.5 16.5H11.5C11.2239 16.5 11 16.2761 11 16C11 15.7239 11.2239 15.5 11.5 15.5H16.5ZM8 11C8.552 11 9 11.447 9 12C9 12.552 8.552 13 8 13C7.447 13 7 12.552 7 12C7 11.447 7.447 11 8 11ZM16.5 11.5C16.7761 11.5 17 11.7239 17 12C17 12.2761 16.7761 12.5 16.5 12.5H11.5C11.2239 12.5 11 12.2761 11 12C11 11.7239 11.2239 11.5 11.5 11.5H16.5ZM8 7C8.552 7 9 7.447 9 8C9 8.552 8.552 9 8 9C7.447 9 7 8.552 7 8C7 7.447 7.447 7 8 7ZM16.5 7.5C16.7761 7.5 17 7.72386 17 8C17 8.27614 16.7761 8.5 16.5 8.5H11.5C11.2239 8.5 11 8.27614 11 8C11 7.72386 11.2239 7.5 11.5 7.5H16.5Z" fill="#0071D1"/>
</svg>
