<svg width="24" height="24" viewBox="0 0 24 24" fill="none" xmlns="http://www.w3.org/2000/svg">
<path fill-rule="evenodd" clip-rule="evenodd" d="M11.6173 2.13239C11.9347 1.88504 12.312 2.0136 12.4897 2.2771L12.502 2.29855L12.5981 2.43613C13.3171 3.4139 14.4128 4.04942 15.6176 4.17715L15.8599 4.19588L16.0887 4.20159C17.1681 4.20159 18.1842 3.80665 18.9719 3.10346L18.9904 3.08705L19.0644 3.0356C19.5558 2.74608 20.0421 3.20393 19.9711 3.64806L19.968 3.65955L19.969 12.42C19.969 14.6996 18.6054 16.9001 16.3398 18.9753L16.0744 19.2142C15.2441 19.9489 14.3569 20.6156 13.4698 21.2034C13.1591 21.4093 12.8702 21.5908 12.6102 21.7465L12.2743 21.9418C12.0939 22.0413 11.8752 22.0413 11.6948 21.9418L11.1586 21.6249C11.0901 21.5828 11.0199 21.5391 10.9481 21.4938L10.4993 21.2034C9.61214 20.6156 8.72497 19.9489 7.89468 19.2142C5.47063 17.0692 4 14.7873 4 12.42V3.55156C4 3.04024 4.59862 2.76324 4.98837 3.0942L5.16654 3.24577C5.86888 3.81154 6.72984 4.14621 7.62958 4.19463L7.88204 4.20159C9.34891 4.20159 10.69 3.46841 11.4869 2.27286L11.5395 2.20449L11.6173 2.13239ZM11.985 3.57855L11.8942 3.67939C10.8667 4.76216 9.42584 5.40156 7.86601 5.40138L7.58145 5.39356C6.77184 5.35018 5.99487 5.13164 5.29179 4.75824L5.199 4.70555L5.20004 12.42C5.20004 14.2838 6.39682 16.2154 8.43125 18.0824L8.68989 18.3155C9.47496 19.0102 10.3185 19.6441 11.1621 20.203C11.4572 20.3985 11.7307 20.5705 11.984 20.7216L12.3814 20.4784L12.807 20.203C13.6505 19.6441 14.4941 19.0102 15.2792 18.3155C17.4704 16.3765 18.769 14.3615 18.769 12.42V4.70755L18.6748 4.76138C17.9673 5.13547 17.1782 5.35472 16.3512 5.39475L16.0742 5.40142L15.8163 5.395C14.4031 5.32641 13.0965 4.7233 12.1299 3.733L11.985 3.57855ZM15.0081 9.60508C15.2184 9.81137 15.2446 10.1344 15.0848 10.3698L15.0162 10.4536L11.4168 14.122C11.2018 14.3412 10.8615 14.3595 10.6254 14.1796L10.5509 14.1123L8.98522 12.443C8.75853 12.2013 8.77068 11.8216 9.01238 11.5949C9.22722 11.3934 9.5511 11.3806 9.77964 11.55L9.86047 11.6221L10.998 12.8346L14.1596 9.61314C14.3917 9.37661 14.7716 9.373 15.0081 9.60508Z" fill="#0071D1"/>
</svg>
