<svg width="24" height="24" viewBox="0 0 24 24" fill="none" xmlns="http://www.w3.org/2000/svg">
<g clip-path="url(#clip0_16649_474719)">
<path d="M4.77306 19.1C4.77287 18.9255 4.82443 18.7549 4.92122 18.6097C5.01802 18.4645 5.1557 18.3513 5.31684 18.2844C5.47799 18.2175 5.65536 18.1999 5.82652 18.2338C5.99768 18.2677 6.15493 18.3517 6.27838 18.475C6.40183 18.5983 6.48593 18.7554 6.52004 18.9266C6.55416 19.0977 6.53675 19.2751 6.47002 19.4363C6.40329 19.5975 6.29025 19.7353 6.14518 19.8323C6.00012 19.9292 5.82955 19.981 5.65506 19.981C5.53929 19.9811 5.42462 19.9584 5.31761 19.9142C5.21061 19.87 5.11337 19.8051 5.03146 19.7233C4.94954 19.6415 4.88456 19.5443 4.84022 19.4374C4.79589 19.3304 4.77306 19.2158 4.77306 19.1ZM18.3171 19.655H6.91306C6.99112 19.48 7.03166 19.2906 7.03206 19.099C7.03212 18.9077 6.99156 18.7185 6.91306 18.544H20.4061C20.5493 18.5501 20.6847 18.6113 20.7839 18.7148C20.8831 18.8183 20.9385 18.9561 20.9385 19.0995C20.9385 19.2429 20.8831 19.3807 20.7839 19.4842C20.6847 19.5877 20.5493 19.6489 20.4061 19.655H18.3171ZM3.53706 19.655C3.39381 19.6489 3.25845 19.5877 3.15924 19.4842C3.06003 19.3807 3.00464 19.2429 3.00464 19.0995C3.00464 18.9561 3.06003 18.8183 3.15924 18.7148C3.25845 18.6113 3.39381 18.5501 3.53706 18.544H4.40006C4.32189 18.7186 4.28167 18.9077 4.28206 19.099C4.28245 19.2905 4.32263 19.4798 4.40006 19.655H3.53706ZM3.59406 17.028C3.44015 17.028 3.29252 16.9669 3.18359 16.8582C3.07466 16.7494 3.01333 16.6019 3.01306 16.448V4.578C3.01359 4.42452 3.07493 4.27751 3.18365 4.16917C3.29236 4.06083 3.43958 4 3.59306 4H20.3501C20.4261 3.99987 20.5014 4.01472 20.5717 4.04369C20.642 4.07267 20.7059 4.11521 20.7598 4.16888C20.8136 4.22255 20.8564 4.28631 20.8856 4.3565C20.9148 4.4267 20.9299 4.50197 20.9301 4.578V16.447C20.9301 16.6008 20.869 16.7484 20.7602 16.8571C20.6514 16.9659 20.5039 17.027 20.3501 17.027L3.59406 17.028ZM4.01406 16.028H19.9291V5H4.01306L4.01406 16.028ZM10.3891 13.587C10.2709 13.5178 10.1729 13.4189 10.1047 13.3001C10.0365 13.1814 10.0004 13.0469 10.0001 12.91V8.446C9.99987 8.30889 10.0358 8.17416 10.1043 8.05537C10.1728 7.93659 10.2714 7.83795 10.3901 7.7694C10.5088 7.70085 10.6436 7.66482 10.7807 7.66492C10.9178 7.66503 11.0524 7.70127 11.1711 7.77L15.0381 10C15.1566 10.0689 15.2549 10.1676 15.3233 10.2864C15.3917 10.4053 15.4277 10.5399 15.4277 10.677C15.4277 10.8141 15.3917 10.9487 15.3233 11.0676C15.2549 11.1864 15.1566 11.2851 15.0381 11.354L11.1711 13.587C11.052 13.6551 10.9172 13.691 10.7801 13.691C10.6429 13.691 10.5081 13.6551 10.3891 13.587ZM11.0001 12.532L14.2101 10.679L11.0001 8.826V12.532Z" fill="#0071D1"/>
</g>
<defs>
<clipPath id="clip0_16649_474719">
<rect width="24" height="24" fill="white"/>
</clipPath>
</defs>
</svg>
