<svg width="24" height="24" viewBox="0 0 24 24" fill="none" xmlns="http://www.w3.org/2000/svg">
<g clip-path="url(#clip0_16649_475176)">
<path d="M18.9 19.8201H4.90002C4.66214 19.8175 4.4347 19.7217 4.26648 19.5535C4.09826 19.3852 4.0026 19.1578 4 18.9199V4.8999C4.00285 4.66209 4.09856 4.43501 4.26672 4.26685C4.43489 4.09868 4.66222 4.00285 4.90002 4H18.9C19.1379 4.0026 19.3653 4.09814 19.5336 4.26636C19.7018 4.43458 19.7974 4.66201 19.8 4.8999V7.45996C19.8 7.59257 19.7473 7.71971 19.6536 7.81348C19.5598 7.90724 19.4327 7.95996 19.3 7.95996C19.1674 7.95996 19.0402 7.90724 18.9464 7.81348C18.8526 7.71971 18.8 7.59257 18.8 7.45996V4.97998H4.95996V18.8201H18.839V16.3501C18.8389 16.2207 18.8889 16.0962 18.9786 16.0029C19.0683 15.9097 19.1907 15.855 19.3199 15.8501C19.387 15.8486 19.4537 15.8604 19.5161 15.8848C19.5786 15.9091 19.6355 15.9455 19.6838 15.9919C19.7322 16.0384 19.7708 16.0941 19.7976 16.1555C19.8244 16.217 19.8388 16.2831 19.84 16.3501V18.9009C19.8414 19.0211 19.819 19.1405 19.774 19.252C19.7291 19.3634 19.6625 19.465 19.578 19.5505C19.4936 19.6361 19.393 19.7041 19.2821 19.7505C19.1712 19.7969 19.0522 19.8209 18.932 19.821L18.9 19.8201ZM15.64 15.6399C15.5914 15.5913 15.5528 15.5337 15.5265 15.4702C15.5002 15.4067 15.4867 15.3387 15.4867 15.27C15.4867 15.2013 15.5002 15.1333 15.5265 15.0698C15.5528 15.0063 15.5914 14.9485 15.64 14.8999L18.11 12.3799H7.37C7.24322 12.3623 7.12704 12.2996 7.04297 12.2031C6.9589 12.1066 6.9126 11.983 6.9126 11.855C6.9126 11.727 6.9589 11.6033 7.04297 11.5068C7.12704 11.4103 7.24322 11.3476 7.37 11.3301H18.02L15.641 8.93994C15.5429 8.84181 15.4878 8.70885 15.4878 8.57007C15.4878 8.43129 15.5429 8.29808 15.641 8.19995C15.7391 8.10182 15.8722 8.04663 16.011 8.04663C16.1498 8.04663 16.2829 8.10182 16.381 8.19995L19.7111 11.5291C19.765 11.5788 19.8081 11.6391 19.8375 11.7063C19.867 11.7735 19.8822 11.846 19.8822 11.9194C19.8822 11.9928 19.867 12.0654 19.8375 12.1326C19.8081 12.1998 19.765 12.2603 19.7111 12.3101L16.381 15.6389C16.3325 15.6877 16.2748 15.7263 16.2113 15.7527C16.1478 15.7791 16.0797 15.7927 16.011 15.7927C15.9422 15.7927 15.8742 15.7791 15.8107 15.7527C15.7472 15.7263 15.6895 15.6877 15.641 15.6389L15.64 15.6399Z" fill="#0071D1"/>
</g>
<defs>
<clipPath id="clip0_16649_475176">
<rect width="24" height="24" fill="white"/>
</clipPath>
</defs>
</svg>
