<svg width="24" height="24" viewBox="0 0 24 24" fill="none" xmlns="http://www.w3.org/2000/svg">
<path fill-rule="evenodd" clip-rule="evenodd" d="M9 18.9295V17.9279C8.4261 17.5712 7.91255 16.9181 7.51782 16.0601L9 16.0598V15.292L7.21522 15.2925C6.9301 14.4415 6.74999 13.4514 6.71489 12.3846L9 12.3841V11.6161L6.71489 11.6162C6.74999 10.5495 6.9301 9.55931 7.21522 8.70835L9 8.70832V7.9405L7.51782 7.94069C7.91255 7.08272 8.4261 6.42964 9 6.07295V5.07129C5.60747 5.55644 3 8.47363 3 12.0004C3 15.5272 5.60747 18.4444 9 18.9295ZM5.27194 16.0605L6.68059 16.0603C6.95702 16.7373 7.30215 17.3256 7.70129 17.7947C6.75587 17.4193 5.92412 16.8193 5.27194 16.0605ZM3.7798 12.3842L5.94629 12.3842C5.97839 13.4286 6.14085 14.4153 6.4083 15.2924L4.85429 15.2918C4.80784 15.2918 4.76331 15.3001 4.72207 15.3157C4.18167 14.4571 3.84499 13.4573 3.7798 12.3842ZM4.64813 8.80564L4.7221 8.68565C4.76331 8.70076 4.80784 8.709 4.85429 8.709L6.4083 8.70844C6.14085 9.58549 5.97839 10.5722 5.94629 11.6166L3.7798 11.6166C3.84196 10.5933 4.15099 9.63672 4.64813 8.80564ZM7.57416 6.25828L7.70095 6.20646C7.30215 6.67526 6.95702 7.26357 6.68059 7.94052L5.27194 7.94031C5.89473 7.21571 6.68126 6.63591 7.57416 6.25828Z" fill="#0071D1"/>
<path fill-rule="evenodd" clip-rule="evenodd" d="M18.1433 2C19.7335 2 21 3.33496 21 4.96017V19.039C21 20.6643 19.7334 22 18.1433 22H11.8567C10.2671 22 9 20.664 9 19.039V4.96017C9 3.33524 10.267 2 11.8567 2H18.1433ZM20 18.5H10V19.039C10 20.1584 10.8434 21.0476 11.8567 21.0476H18.1433C19.1571 21.0476 20 20.1587 20 19.039V18.5ZM15.0132 19C15.4356 19 15.778 19.3424 15.778 19.7648C15.778 20.1872 15.4356 20.5312 15.0132 20.5312C14.5924 20.5312 14.25 20.1872 14.25 19.7648C14.25 19.3424 14.5924 19 15.0132 19ZM20 6H10V17.5H20V6ZM18.1433 2.95238H11.8567C10.8432 2.95238 10 3.84093 10 4.96017V5H20V4.96017C20 3.84061 19.1573 2.95238 18.1433 2.95238ZM16 3.5C16.2761 3.5 16.5 3.72386 16.5 4C16.5 4.27614 16.2761 4.5 16 4.5H14C13.7239 4.5 13.5 4.27614 13.5 4C13.5 3.72386 13.7239 3.5 14 3.5H16Z" fill="#0071D1"/>
</svg>
