<svg width="24" height="24" viewBox="0 0 24 24" fill="none" xmlns="http://www.w3.org/2000/svg">
<path fill-rule="evenodd" clip-rule="evenodd" d="M8.1 9.6C8.1 9.93137 7.83137 10.2 7.5 10.2C7.16863 10.2 6.9 9.93137 6.9 9.6V5.59943C6.9 4.14717 8.19093 3 9.75 3H14.251C15.8099 3 17.1 4.14709 17.1 5.59943V9.6C17.1 9.93137 16.8314 10.2 16.5 10.2C16.1686 10.2 15.9 9.93137 15.9 9.6V5.59943C15.9 4.84328 15.1765 4.2 14.251 4.2H9.75C8.82418 4.2 8.1 4.84354 8.1 5.59943V9.6ZM5.61019 6.8C5.94156 6.8 6.21019 7.06863 6.21019 7.4C6.21019 7.73137 5.94156 8 5.61019 8H4.6C4.37909 8 4.2 8.17909 4.2 8.4V19.4C4.2 19.6209 4.37909 19.8 4.6 19.8H19.4C19.6209 19.8 19.8 19.6209 19.8 19.4V8.4C19.8 8.17909 19.6209 8 19.4 8H18.4323C18.1009 8 17.8323 7.73137 17.8323 7.4C17.8323 7.06863 18.1009 6.8 18.4323 6.8H19.4C20.2837 6.8 21 7.51634 21 8.4V19.4C21 20.2837 20.2837 21 19.4 21H4.6C3.71634 21 3 20.2837 3 19.4V8.4C3 7.51634 3.71634 6.8 4.6 6.8H5.61019ZM14.5 6.9C14.8314 6.9 15.1 7.16863 15.1 7.5C15.1 7.83137 14.8314 8.1 14.5 8.1H9.5C9.16863 8.1 8.9 7.83137 8.9 7.5C8.9 7.16863 9.16863 6.9 9.5 6.9H14.5Z" fill="#0071D1"/>
</svg>
