<svg width="24" height="24" viewBox="0 0 24 24" fill="none" xmlns="http://www.w3.org/2000/svg">
<path fill-rule="evenodd" clip-rule="evenodd" d="M12 2C14.8243 2 18.5 4.7473 18.5 7.82742C18.5 8.42237 18.3705 9.04322 18.1243 9.69939C17.7571 10.6779 17.1884 11.6374 16.2554 12.9698C16.1562 13.1116 16.0542 13.2557 15.9225 13.4411C15.7583 13.6717 15.6668 13.8003 15.5983 13.8968C15.3416 14.2586 15.1653 14.5122 15.0049 14.7533C14.6068 15.3514 14.3597 15.7989 14.2375 16.1617C14.0952 16.5821 13.7256 16.8828 13.286 16.9684L13.2853 18.6882L13.7382 18.6888C13.9395 18.6888 14.1074 18.8273 14.1462 19.0114L14.1547 19.0929V21.5959C14.1547 21.7912 14.0119 21.9541 13.8222 21.9918L13.7382 22H10.2618C10.0605 22 9.8926 21.8615 9.85377 21.6774L9.84531 21.5959V19.0929C9.84531 18.8976 9.98806 18.7347 10.1778 18.697L10.2618 18.6888L10.7133 18.6882L10.714 16.9684C10.2744 16.8828 9.90472 16.5821 9.76229 16.1612C9.64035 15.7989 9.39324 15.3514 8.99515 14.7533C8.83467 14.5122 8.65836 14.2586 8.40167 13.8968C8.33319 13.8003 8.24165 13.6717 8.07752 13.4411C7.94576 13.2557 7.84383 13.1116 7.74459 12.9698C6.81162 11.6374 6.2429 10.6779 5.8757 9.69939C5.62945 9.04322 5.5 8.42237 5.5 7.82742C5.5 4.7473 9.17572 2 12 2ZM13.3218 19.4969L12.8773 19.4962C12.8662 19.4974 12.863 19.4974 12.8599 19.4973L11.1393 19.4962C11.1275 19.4974 11.1245 19.4974 11.1214 19.4973L10.6782 19.4969V21.1919H13.3218V19.4969ZM12.452 16.993H11.547L11.5463 18.6882H12.4523L12.452 16.993ZM8.965 3.83C7.50738 4.78159 6.33293 6.27883 6.33293 7.82742C6.33293 8.32038 6.44336 8.84999 6.65837 9.42293C6.99602 10.3227 7.53657 11.2347 8.43358 12.5157C8.53154 12.6556 8.63245 12.7983 8.76319 12.9823C8.92688 13.2123 9.01886 13.3415 9.08775 13.4386C9.3487 13.8063 9.52897 14.0657 9.69486 14.3149C10.1288 14.9668 10.4047 15.4665 10.5539 15.9097C10.601 16.0489 10.7313 16.1519 10.8906 16.1785L10.9724 16.1852L11.1245 16.1857C11.0522 15.7381 10.7683 15.1087 9.66338 12.6843C9.27032 11.8219 8.99024 11.1585 8.75508 10.5068C8.33147 9.33293 8.10666 8.32068 8.10666 7.40983C8.10666 6.12581 8.36654 5.00853 8.83426 4.0786L8.965 3.83ZM15.0317 3.83029L15.1169 3.98354C15.6153 4.93206 15.8933 6.08175 15.8933 7.40983C15.8933 8.32068 15.6685 9.33293 15.2449 10.5068C15.0098 11.1585 14.7297 11.8219 14.3366 12.6843C13.2317 15.1087 12.9478 15.7381 12.8755 16.1857L13.0276 16.1852C13.223 16.1852 13.3912 16.0721 13.4459 15.9103C13.5953 15.4665 13.8712 14.9668 14.3051 14.3149C14.471 14.0657 14.6513 13.8063 14.9122 13.4386C14.9811 13.3415 15.0731 13.2123 15.2368 12.9823C15.3676 12.7983 15.4685 12.6556 15.5664 12.5157C16.4634 11.2347 17.004 10.3227 17.3416 9.42293C17.5566 8.84999 17.6671 8.32038 17.6671 7.82742C17.6671 6.27813 16.4916 4.78024 15.0317 3.83029ZM12 2.8081C11.5574 2.8081 11.0857 2.89071 10.6106 3.04162C10.5946 3.06559 10.576 3.08771 10.5547 3.10815C9.54919 4.07268 8.9396 5.52073 8.9396 7.40983C8.9396 8.21531 9.14592 9.14435 9.54122 10.2398C9.7677 10.8674 10.0403 11.513 10.4252 12.3576C11.686 15.124 11.9256 15.6503 11.9712 16.1856H12.0288C12.0744 15.6503 12.314 15.124 13.5748 12.3576C13.9597 11.513 14.2323 10.8674 14.4588 10.2398C14.8541 9.14435 15.0604 8.21531 15.0604 7.40983C15.0604 5.52073 14.4508 4.07268 13.4453 3.10815C13.424 3.08771 13.4054 3.06559 13.3896 3.04223C12.9143 2.89071 12.4426 2.8081 12 2.8081Z" fill="#0071D1"/>
</svg>
