<svg width="24" height="24" viewBox="0 0 24 24" fill="none" xmlns="http://www.w3.org/2000/svg">
<path fill-rule="evenodd" clip-rule="evenodd" d="M12 2C17.5233 2 22 6.47669 22 12C22 17.5233 17.5233 22 12 22C6.47669 22 2 17.5233 2 12C2 6.47669 6.47669 2 12 2ZM11.451 17.799L8.45403 17.7996C9.21332 19.45 10.2804 20.5697 11.4513 20.8396L11.451 17.799ZM12.548 17.799L12.5487 20.8396C13.7196 20.5697 14.7867 19.45 15.546 17.7996L12.548 17.799ZM7.25799 17.7998L5.24562 17.8001C6.17732 18.8842 7.36552 19.7413 8.71613 20.2775C8.14593 19.6074 7.65288 18.7669 7.25799 17.7998ZM18.7544 17.8001L16.742 17.7998C16.3471 18.7669 15.8541 19.6074 15.2844 20.2771C16.6345 19.7413 17.8227 18.8842 18.7544 17.8001ZM6.20898 12.5483L3.114 12.5483C3.20712 14.0813 3.6881 15.5095 4.4601 16.7361C4.51902 16.7138 4.58263 16.702 4.64899 16.702L6.86901 16.7028C6.48693 15.4499 6.25485 14.0403 6.20898 12.5483ZM20.886 12.5483L17.791 12.5483C17.7452 14.0403 17.5131 15.4499 17.131 16.7028L19.351 16.702C19.4174 16.702 19.481 16.7138 19.5399 16.7354C20.3119 15.5095 20.7929 14.0813 20.886 12.5483ZM11.451 12.548L7.30698 12.5488C7.35712 14.0728 7.61443 15.4873 8.02174 16.703L11.451 16.702V12.548ZM16.693 12.5488L12.548 12.548V16.702L15.9783 16.703C16.3856 15.4873 16.6429 14.0728 16.693 12.5488ZM4.46014 7.26461L4.35447 7.43604C3.64428 8.6233 3.2028 9.98984 3.114 11.4517L6.20898 11.4517C6.25485 9.95973 6.48693 8.5501 6.86901 7.29717L4.64899 7.29798C4.58263 7.29798 4.51902 7.2862 4.46014 7.26461ZM11.451 7.297L8.02174 7.29704C7.61443 8.51271 7.35712 9.92724 7.30698 11.4512L11.451 11.451V7.297ZM15.9783 7.29704L12.548 7.297V11.451L16.693 11.4512C16.6429 9.92724 16.3856 8.51271 15.9783 7.29704ZM19.5399 7.26391L19.5244 7.27001C19.4699 7.28815 19.4116 7.29798 19.351 7.29798L17.131 7.29717C17.5131 8.5501 17.7452 9.95973 17.791 11.4517L20.886 11.4517C20.7929 9.91867 20.3119 8.49045 19.5399 7.26391ZM8.71564 3.72292L8.53451 3.79695C7.25894 4.33641 6.13533 5.1647 5.24562 6.19985L7.25799 6.20015C7.65288 5.23308 8.14593 4.39263 8.71564 3.72292ZM8.45403 6.20039L11.451 6.2L11.4513 3.16045C10.2804 3.43031 9.21332 4.55001 8.45403 6.20039ZM12.5487 3.16045L12.548 6.2L15.546 6.20039C14.7867 4.55001 13.7196 3.43031 12.5487 3.16045ZM15.2839 3.7225L15.3823 3.84065C15.9107 4.49013 16.3699 5.28893 16.742 6.20015L18.7544 6.19985C17.8227 5.11584 16.6345 4.25869 15.2839 3.7225Z" fill="#0071D1"/>
</svg>
