<svg width="24" height="24" viewBox="0 0 24 24" fill="none" xmlns="http://www.w3.org/2000/svg">
<path fill-rule="evenodd" clip-rule="evenodd" d="M7.63866 15.9868C7.54228 16.1014 7.44635 16.219 7.32097 16.3754C7.38485 16.2957 7.08555 16.67 7.01719 16.7543C6.82439 16.9922 6.66954 17.189 6.33186 17.6225L6.31916 17.6388C6.04352 17.9926 5.91366 18.1582 5.754 18.3577C5.69095 18.4367 5.37734 18.896 5.31662 18.98C4.71436 19.8124 4.15298 20.2067 3.41898 19.8922C3.10266 19.7565 2.87557 19.5219 2.65249 19.1766C1.67003 17.6569 1.80369 16.0315 3.00848 14.6699C4.45501 13.0358 6.39584 12.0657 9.32251 11.2313C9.87192 11.0746 10.1722 10.9956 11.3266 10.6985C14.3352 9.92468 17.4064 9.42803 20.4891 9.21795C20.7631 9.19844 21.1246 9.23063 21.3939 9.32339C21.9304 9.50817 22.1936 9.98931 21.836 10.5184C21.6668 10.7682 21.4149 10.936 21.0493 11.1015C20.9518 11.1456 20.6601 11.2665 20.6225 11.2832C20.4545 11.3577 20.2794 11.4345 20.0614 11.5296C19.958 11.5747 19.7896 11.648 19.5175 11.7665C19.3042 11.8594 19.1361 11.933 18.9738 12.0048C17.3101 12.7402 16.2333 13.3007 15.2428 14.0015C14.3327 14.6457 13.6789 15.377 12.4781 16.9597L12.3007 17.1937C11.8815 17.7463 11.6372 18.0602 11.362 18.3921C10.2426 19.7423 8.69719 18.9478 8.48606 17.3511C8.39213 16.64 8.43727 15.923 8.60512 15.024C8.3047 15.2514 7.98878 15.5707 7.63866 15.9868ZM20.5564 10.1522C17.5315 10.3584 14.5189 10.8456 11.5676 11.6046C10.4224 11.8994 10.1257 11.9774 9.58756 12.1309C6.82093 12.9197 5.02625 13.8168 3.72658 15.2849C2.79723 16.3352 2.70095 17.5062 3.456 18.6741C3.5865 18.8761 3.696 18.9892 3.79941 19.0336C3.94699 19.0968 4.18372 18.9305 4.5409 18.4368C4.58353 18.3779 4.91615 17.8908 5.00548 17.7789C5.16209 17.5831 5.29024 17.4197 5.56343 17.069L5.57612 17.0527C5.91748 16.6146 6.07485 16.4146 6.27284 16.1703C6.19094 16.2712 6.7436 15.5817 6.90516 15.3896C7.69006 14.4567 8.36175 13.9085 9.16413 13.7203C9.51341 13.6385 9.82561 13.9519 9.73523 14.2938C9.72942 14.3167 9.72942 14.3167 9.72158 14.3505C9.42938 15.5931 9.32591 16.4404 9.43024 17.2303C9.54682 18.1119 10.1209 18.4071 10.6241 17.8001C10.8883 17.4815 11.1262 17.1759 11.5376 16.6335L11.7151 16.3995C12.9726 14.742 13.6725 13.959 14.6868 13.2412C15.7411 12.4952 16.8662 11.9096 18.5835 11.1505C18.7477 11.0779 18.9172 11.0037 19.1318 10.9101C19.4046 10.7913 19.5725 10.7183 19.6756 10.6733C19.8919 10.579 20.0654 10.5029 20.2304 10.4297C20.2835 10.4061 20.5719 10.2866 20.6514 10.2506C20.7214 10.2189 20.7823 10.1884 20.8343 10.1595C20.7372 10.1493 20.6362 10.1466 20.5564 10.1522ZM7.89287 6.76252C9.12348 6.76252 10.1156 7.76327 10.1156 8.99266C10.1156 10.2216 9.12318 11.2236 7.89287 11.2236C6.66249 11.2236 5.66935 10.2215 5.66935 8.99266C5.66935 7.76335 6.66218 6.76252 7.89287 6.76252ZM7.89287 7.69915C7.19331 7.69915 6.62148 8.27559 6.62148 8.99266C6.62148 9.70948 7.19382 10.2869 7.89287 10.2869C8.59172 10.2869 9.16351 9.70968 9.16351 8.99266C9.16351 8.27538 8.59223 7.69915 7.89287 7.69915ZM15.0129 5C16.2437 5 17.2357 6.0009 17.2357 7.23091C17.2357 8.45978 16.2433 9.46106 15.0129 9.46106C13.7824 9.46106 12.7894 8.45969 12.7894 7.23091C12.7894 6.00098 13.7821 5 15.0129 5ZM15.0129 5.93663C14.3133 5.93663 13.7415 6.51316 13.7415 7.23091C13.7415 7.94752 14.3136 8.52442 15.0129 8.52442C15.712 8.52442 16.2835 7.94772 16.2835 7.23091C16.2835 6.51295 15.7123 5.93663 15.0129 5.93663Z" fill="#0071D1"/>
</svg>
