<svg width="24" height="24" viewBox="0 0 24 24" fill="none" xmlns="http://www.w3.org/2000/svg">
<path fill-rule="evenodd" clip-rule="evenodd" d="M5.27991 3L18.7203 3.00398C19.4845 3.00398 20 3.74939 20 4.58829V5.48084C20 5.8102 19.7323 6.07719 19.402 6.07719C19.0717 6.07719 18.804 5.8102 18.804 5.48084V4.58829C18.804 4.33404 18.709 4.19669 18.7201 4.19669L5.27973 4.19271C5.29099 4.19271 5.19601 4.32995 5.19601 4.58332V19.4117C5.19601 19.6647 5.29171 19.8033 5.27973 19.8033H10.7269L18.7203 19.8073C18.7083 19.8073 18.804 19.6688 18.804 19.4167V14.6071C18.804 14.2777 19.0717 14.0107 19.402 14.0107C19.7323 14.0107 20 14.2777 20 14.6071V19.4167C20 20.2534 19.4841 21 18.72 21L10.7266 20.996H5.27973C4.51572 20.996 4 20.2492 4 19.4117V4.58332C4 3.74522 4.51571 3 5.27991 3ZM17.5648 7.21961L17.6617 7.30572L19.679 9.31742C20.0818 9.71914 20.1106 10.3517 19.7653 10.7864L19.679 10.883L13.0579 17.4848C12.9095 17.6343 12.7218 17.7375 12.519 17.7834L12.3956 17.804L9.99901 18.0726C9.75902 18.0983 9.52189 18.0281 9.33345 17.8792C9.24147 17.8053 9.16394 17.7138 9.11142 17.6173C9.05199 17.5124 9.0133 17.395 9.00093 17.2813L8.99498 17.2025L8.99613 17.115L9.0828 15.7828L9.15768 14.6079C9.16684 14.4728 9.20034 14.3401 9.25388 14.2266C9.29049 14.1451 9.33678 14.0683 9.39185 13.9979L9.48094 13.8974L16.0911 7.30645C16.4931 6.90394 17.1286 6.87519 17.5648 7.21961ZM10.1376 14.8873L10.0774 15.8464L9.99753 17.0726L12.1146 16.8343L10.1376 14.8873ZM16.8341 7.9836L16.7966 8.00856L10.7216 14.0643L12.9116 16.2233L18.9743 10.1802C19.0077 10.1468 19.0161 10.0985 18.9993 10.0577L18.9743 10.0202L16.957 8.00853C16.9236 7.97527 16.875 7.96696 16.8341 7.9836Z" fill="#0071D1"/>
</svg>
