<svg width="24" height="24" viewBox="0 0 24 24" fill="none" xmlns="http://www.w3.org/2000/svg">
<path fill-rule="evenodd" clip-rule="evenodd" d="M15.0265 3C17.1668 3 19.077 4.32646 19.9581 6.34687C20.0679 6.59853 19.9545 6.89225 19.7049 7.00292C19.4553 7.11358 19.164 6.99927 19.0543 6.7476C18.3271 5.08015 16.7652 3.99558 15.0265 3.99558C13.6941 3.99558 12.4577 4.62842 11.6173 5.70773C11.4197 5.96158 11.0384 5.96158 10.8407 5.70773C10.0005 4.62865 8.76322 3.99558 7.43057 3.99558C4.98326 3.99558 2.98738 6.1234 2.98738 8.76139C2.98738 9.98834 3.46321 11.1463 4.31683 12.161C4.93206 12.893 6.06295 14.1575 7.5629 15.7999L7.68613 15.9348C8.53971 16.8687 9.45442 17.8613 10.3692 18.8486C10.6797 19.1837 10.9686 19.495 11.2291 19.7751C11.3549 19.6399 11.4933 19.4909 11.6436 19.3288C12.2619 18.6622 12.9549 17.9114 13.7064 17.0927C13.8916 16.891 14.204 16.8788 14.4041 17.0655C14.6042 17.2523 14.6162 17.5672 14.431 17.769C13.6783 18.5889 12.9842 19.341 12.3648 20.0088C12.148 20.2426 11.956 20.4491 11.7908 20.6264C11.6714 20.7546 11.6372 20.7912 11.6146 20.8155L11.5882 20.8437C11.3932 21.0523 11.0642 21.0521 10.8694 20.8433C10.8082 20.7776 10.6936 20.6547 10.5332 20.4823C10.266 20.195 9.96829 19.8743 9.64766 19.5282C8.73151 18.5394 7.81534 17.5452 6.96008 16.6095L6.83656 16.4743C5.32747 14.8219 4.19044 13.5506 3.5637 12.8049C2.56702 11.6201 2 10.2402 2 8.76139C2 5.58559 4.42526 3 7.43057 3C8.87617 3 10.2278 3.60304 11.229 4.6443C12.2301 3.60292 13.581 3 15.0265 3ZM17.7759 8.39311C17.8912 7.86778 18.6393 7.87055 18.7508 8.39671L19.5205 12.0298L21.5005 12.0256C21.776 12.025 21.9997 12.2484 22.0003 12.5246C22.0009 12.8007 21.7781 13.025 21.5026 13.0256L19.1178 13.0306C18.8819 13.0311 18.6779 12.8658 18.6289 12.6345L18.253 10.8602L17.8475 12.6975L16.7593 15.6765C16.5911 16.1373 15.9305 16.1047 15.8082 15.6296L14.6549 11.1524L14.0661 12.7035C13.9925 12.8974 13.807 13.0256 13.6 13.0256H10.499C10.2236 13.0256 10.0003 12.8017 10.0003 12.5256C10.0003 12.2495 10.2236 12.0256 10.499 12.0256H13.2562L14.2799 9.32875C14.4529 8.87322 15.1073 8.90965 15.2289 9.38158L16.3745 13.829L16.8922 12.4181L17.7759 8.39311ZM7.34755 5.00061L7.53701 5.0064C7.80808 5.02226 8.01513 5.2576 7.99947 5.53205C7.9838 5.8065 7.75135 6.01613 7.48028 6.00026C6.092 5.91904 4.98358 7.0659 4.98358 8.50284C4.98358 8.77774 4.76347 9.0006 4.49194 9.0006C4.22042 9.0006 4.0003 8.77774 4.0003 8.50284C4.0003 6.51082 5.56575 4.89106 7.53701 5.0064L7.34755 5.00061Z" fill="#0071D1"/>
</svg>
