<svg width="24" height="24" viewBox="0 0 24 24" fill="none" xmlns="http://www.w3.org/2000/svg">
<path fill-rule="evenodd" clip-rule="evenodd" d="M21.9193 10.1619L15.0364 3.15084C14.9912 3.10307 14.9368 3.06507 14.8764 3.03915C14.816 3.01324 14.7509 3.00002 14.6852 3.00002H9.41767C9.35189 2.99937 9.28663 3.01236 9.22615 3.03831C9.16567 3.06426 9.11129 3.10259 9.0665 3.15084L2.14345 10.182C2.07471 10.2522 2.02805 10.3411 2.00926 10.4376C1.99048 10.5341 2.0004 10.634 2.03779 10.7249C2.07518 10.8158 2.13839 10.8937 2.2196 10.949C2.30081 11.0042 2.39643 11.0344 2.49462 11.0358H3.99963V20.5782C3.99963 20.7113 4.05249 20.8391 4.14657 20.9333C4.24065 21.0275 4.36825 21.0804 4.5013 21.0804H10.0118V14.0492H13.9784V21.0804H19.6016C19.7168 21.0593 19.8209 20.9985 19.896 20.9086C19.9712 20.8188 20.0125 20.7054 20.0129 20.5882V11.0358H21.5581C21.6614 11.0409 21.7637 11.0138 21.8511 10.9584C21.9384 10.903 22.0065 10.8219 22.0461 10.7262C22.0856 10.6305 22.0947 10.525 22.072 10.424C22.0493 10.323 21.9959 10.2315 21.9193 10.1619ZM19.0497 10.0314V20.076H15.0245V13.547C15.0246 13.4793 15.0109 13.4123 14.9845 13.35C14.958 13.2877 14.9193 13.2314 14.8705 13.1845C14.8218 13.1376 14.7641 13.1011 14.7009 13.077C14.6377 13.053 14.5703 13.0421 14.5028 13.0447H9.46492C9.33188 13.0447 9.20429 13.0976 9.11018 13.1918C9.01611 13.286 8.96325 13.4138 8.96325 13.547V20.076H5.00297V10.0314H3.69863L9.62837 4.00463H14.4745L20.3641 10.0314H19.0497Z" fill="#0071D1"/>
</svg>
