<svg width="24" height="24" viewBox="0 0 24 24" fill="none" xmlns="http://www.w3.org/2000/svg">
<path fill-rule="evenodd" clip-rule="evenodd" d="M17.8522 16.7C19.041 16.7 20.0043 17.6621 20.0043 18.85C20.0043 20.0379 19.041 21 17.8522 21C16.6634 21 15.7 20.0379 15.7 18.85C15.7 17.6621 16.6634 16.7 17.8522 16.7ZM9.15217 16.7C10.341 16.7 11.3043 17.6621 11.3043 18.85C11.3043 20.0379 10.341 21 9.15217 21C7.96335 21 7 20.0379 7 18.85C7 17.6621 7.96335 16.7 9.15217 16.7ZM17.8522 17.7C17.2153 17.7 16.7 18.2147 16.7 18.85C16.7 19.4853 17.2153 20 17.8522 20C18.489 20 19.0043 19.4853 19.0043 18.85C19.0043 18.2147 18.489 17.7 17.8522 17.7ZM9.15217 17.7C8.51534 17.7 8 18.2147 8 18.85C8 19.4853 8.51534 20 9.15217 20C9.789 20 10.3043 19.4853 10.3043 18.85C10.3043 18.2147 9.789 17.7 9.15217 17.7ZM4.97826 3C5.21607 3 5.42098 3.1675 5.46827 3.40056L5.882 5.442L21.5 5.44286C21.8047 5.44286 22.0385 5.71306 21.9948 6.01461L21.258 11.0965C21.1725 11.6863 20.6987 12.1438 20.1046 12.2142L7.563 13.712L7.58725 13.8085C7.82808 14.6337 8.59864 15.2143 9.48787 15.2143H19.5043C19.7805 15.2143 20.0043 15.4381 20.0043 15.7143C20.0043 15.9904 19.7805 16.2143 19.5043 16.2143H9.48787C8.06966 16.2143 6.847 15.226 6.56834 13.8497L4.56953 4H2.5C2.22386 4 2 3.77614 2 3.5C2 3.22386 2.22386 3 2.5 3H4.97826ZM7.361 12.729L19.9864 11.2212C20.1334 11.2038 20.248 11.0932 20.2683 10.9531L20.9223 6.44286L6.085 6.442L7.361 12.729Z" fill="#0071D1"/>
</svg>
