<svg width="24" height="24" viewBox="0 0 24 24" fill="none" xmlns="http://www.w3.org/2000/svg">
<path fill-rule="evenodd" clip-rule="evenodd" d="M7.65604 4.0339C8.42616 4.0339 9.05285 4.6606 9.05285 5.43071C9.05285 6.52022 9.22419 7.59017 9.56035 8.60985C9.7196 9.11831 9.58642 9.66118 9.2149 10.0337L7.7389 11.9948C8.95228 14.2819 10.4273 15.7569 12.7321 16.987L14.7407 15.4701C15.0657 15.1395 15.6254 15.01 16.1226 15.1777C17.1358 15.5129 18.2048 15.6833 19.2962 15.6833C20.0663 15.6833 20.693 16.31 20.693 17.0801V20.3301C20.693 21.1002 20.0663 21.7269 19.2962 21.7269C10.3109 21.7269 3 14.416 3 5.43071C3 4.6606 3.62671 4.0339 4.39681 4.0339H7.65604ZM7.65604 4.96511H4.39681C4.14073 4.96511 3.93121 5.1737 3.93121 5.43071C3.93121 13.9028 10.824 20.7957 19.2962 20.7957C19.5522 20.7957 19.7618 20.5871 19.7618 20.3301V17.0801C19.7618 16.8231 19.5522 16.6145 19.2962 16.6145C18.1061 16.6145 16.9383 16.4283 15.8246 16.0604C15.6598 16.0037 15.4745 16.0484 15.3516 16.1704L13.0589 17.908C12.9146 18.016 12.7227 18.0319 12.5654 17.9508C9.83226 16.5503 8.15517 14.8732 6.77606 12.1605C6.69503 12.0013 6.71085 11.8104 6.81887 11.6689L8.51367 9.42467C8.68409 9.24772 8.72787 9.06801 8.67384 8.89482C8.30789 7.78758 8.12164 6.61987 8.12164 5.43071C8.12164 5.1737 7.91213 4.96511 7.65604 4.96511ZM12.3845 8.40976C13.4115 8.48661 14.3866 8.92861 15.1362 9.67819C15.8944 10.4365 16.3378 11.4254 16.4071 12.4648C16.4254 12.7403 16.217 12.9786 15.9414 12.9969C15.6659 13.0153 15.4276 12.8068 15.4093 12.5313C15.356 11.732 15.0149 10.9711 14.4291 10.3853C13.8499 9.80615 13.0997 9.46608 12.3099 9.40697C12.0345 9.38637 11.828 9.14643 11.8486 8.87105C11.8692 8.59568 12.1091 8.38915 12.3845 8.40976ZM12.8085 5.69205C14.4226 5.7925 15.9493 6.46906 17.1159 7.63567C18.296 8.8158 18.9745 10.3642 19.0627 11.9979C19.0776 12.2737 18.8662 12.5093 18.5904 12.5242C18.3147 12.5391 18.0791 12.3276 18.0642 12.0519C17.9891 10.662 17.4129 9.34683 16.4088 8.34278C15.4163 7.35022 14.1195 6.77557 12.7464 6.69012C12.4708 6.67296 12.2612 6.43563 12.2784 6.16002C12.2956 5.88442 12.5329 5.67489 12.8085 5.69205ZM13.2622 3.00082C15.4624 3.12563 17.5393 4.03675 19.1219 5.61938C20.7228 7.22034 21.6363 9.3268 21.7444 11.5538C21.7578 11.8296 21.545 12.064 21.2692 12.0774C20.9934 12.0908 20.7589 11.878 20.7456 11.6022C20.6494 9.62072 19.8381 7.74977 18.4148 6.32649C17.0078 4.9195 15.1632 4.11027 13.2056 3.99921C12.9299 3.98357 12.7191 3.74739 12.7347 3.4717C12.7504 3.196 12.9865 2.98518 13.2622 3.00082Z" fill="#0071D1"/>
</svg>
