<svg width="24" height="24" viewBox="0 0 24 24" fill="none" xmlns="http://www.w3.org/2000/svg">
<path fill-rule="evenodd" clip-rule="evenodd" d="M12 2C16.1351 2 19.5 5.18208 19.5 9.12308C19.5 12.1719 18.1493 15.2122 15.909 18.1142C15.1318 19.121 14.3001 20.0394 13.468 20.8523C13.1762 21.1373 12.9049 21.3891 12.6607 21.6054C12.5126 21.7366 12.4053 21.8278 12.3455 21.8767C12.1444 22.0411 11.8556 22.0411 11.6545 21.8767C11.5947 21.8278 11.4874 21.7366 11.3393 21.6054C11.0951 21.3891 10.8238 21.1373 10.532 20.8523C9.69989 20.0394 8.86816 19.121 8.09096 18.1142C5.85075 15.2122 4.5 12.1719 4.5 9.12308C4.5 5.18208 7.86491 2 12 2ZM12 3.09453C8.45479 3.09453 5.59272 5.80109 5.59272 9.12308C5.59272 11.8878 6.84958 14.7168 8.95539 17.4447C9.69931 18.4083 10.4973 19.2896 11.295 20.0688C11.5485 20.3165 11.7852 20.5372 12 20.7293C12.2148 20.5372 12.4515 20.3165 12.705 20.0688C13.5027 19.2896 14.3007 18.4083 15.0446 17.4447C17.1504 14.7168 18.4073 11.8878 18.4073 9.12308C18.4073 5.80109 15.5452 3.09453 12 3.09453ZM12 5C14.4849 5 16.5 7.01505 16.5 9.5C16.5 11.9849 14.4849 14 12 14C9.51505 14 7.5 11.9849 7.5 9.5C7.5 7.01505 9.51505 5 12 5ZM12 6.08791C10.1159 6.08791 8.58791 7.61589 8.58791 9.5C8.58791 11.3841 10.1159 12.9121 12 12.9121C13.8841 12.9121 15.4121 11.3841 15.4121 9.5C15.4121 7.61589 13.8841 6.08791 12 6.08791Z" fill="#0071D1"/>
</svg>
