<svg width="24" height="24" viewBox="0 0 24 24" fill="none" xmlns="http://www.w3.org/2000/svg">
<path fill-rule="evenodd" clip-rule="evenodd" d="M14.9168 2C15.167 2 15.378 2.18703 15.4088 2.43613L15.8569 6.05153C17.0085 6.24725 17.8925 7.19138 17.8925 8.34306L17.8924 9.06726C18 9.00664 18.1241 8.97207 18.2562 8.97207C18.667 8.97207 19 9.3061 19 9.71816V10.3966C19 10.8087 18.667 11.1427 18.2562 11.1427C18.1241 11.1427 18 11.1081 17.8924 11.0475V14.0296C18 13.9689 18.1241 13.9344 18.2562 13.9344C18.667 13.9344 19 14.2684 19 14.6805V15.3589C19 15.771 18.667 16.105 18.2562 16.105C18.1141 16.105 17.9813 16.065 17.8683 15.9956C17.7199 16.9955 16.8975 17.7842 15.8569 17.9612L15.4088 21.564C15.3779 21.8131 15.1669 22 14.9168 22H7.97471C7.72449 22 7.51347 21.813 7.48263 21.5639L7.03601 17.9612C5.88445 17.7655 5 16.8208 5 15.6697V8.34306C5 7.19127 5.88419 6.24707 7.03592 6.05147L7.48261 2.43626C7.51337 2.1871 7.72442 2 7.97471 2H14.9168ZM14.852 17.998H8.04L8.41279 21.0052H14.4788L14.852 17.998ZM15.4134 7.00905H7.47915C6.64922 7.00905 5.99172 7.616 5.99172 8.34306V15.6697C5.99172 16.3961 6.64963 17.0037 7.47915 17.0037H15.4134C16.2429 17.0037 16.9008 16.3961 16.9008 15.6697V8.34306C16.9008 7.616 16.2433 7.00905 15.4134 7.00905ZM11.5714 13.7727C12.1015 13.7727 12.5357 14.1978 12.5357 14.7273C12.5357 15.2567 12.1015 15.6818 11.5714 15.6818C11.0413 15.6818 10.6071 15.2567 10.6071 14.7273C10.6071 14.1978 11.0413 13.7727 11.5714 13.7727ZM13.2341 12.6299C13.4314 12.8231 13.4348 13.1396 13.2416 13.337C13.0484 13.5343 12.7319 13.5376 12.5345 13.3445C12.0037 12.8248 11.139 12.8248 10.6081 13.3445C10.4108 13.5376 10.0942 13.5343 9.90105 13.337C9.70787 13.1396 9.71123 12.8231 9.90855 12.6299C10.8281 11.7296 12.3145 11.7296 13.2341 12.6299ZM14.5476 11.344C14.7449 11.5372 14.7483 11.8537 14.5551 12.0511C14.3619 12.2484 14.0453 12.2517 13.848 12.0586C12.592 10.8288 10.5507 10.8288 9.29466 12.0586C9.09734 12.2517 8.78077 12.2484 8.58759 12.0511C8.39441 11.8537 8.39776 11.5372 8.59509 11.344C10.2399 9.7337 12.9028 9.7337 14.5476 11.344ZM15.8605 10.0584C16.0578 10.2516 16.0612 10.5682 15.868 10.7655C15.6748 10.9628 15.3582 10.9662 15.1609 10.773C13.1796 8.8333 9.96284 8.8333 7.98156 10.773C7.78424 10.9662 7.46768 10.9628 7.2745 10.7655C7.08132 10.5682 7.08467 10.2516 7.28199 10.0584C9.65201 7.73815 13.4905 7.73815 15.8605 10.0584ZM14.4786 2.99479H8.41295L8.04 6.014H14.852L14.4786 2.99479Z" fill="#0071D1"/>
</svg>
