<svg width="24" height="24" viewBox="0 0 24 24" fill="none" xmlns="http://www.w3.org/2000/svg">
<path fill-rule="evenodd" clip-rule="evenodd" d="M12 2C17.523 2 22 6.47701 22 12C22 17.523 17.523 22 12 22C6.47701 22 2 17.523 2 12C2 6.47701 6.47701 2 12 2ZM2.95238 12C2.95238 16.997 7.00299 21.0476 12 21.0476L12.0776 21.0464C12.0607 20.9582 12.0522 20.8682 12.0523 20.7765C12.0524 20.3311 12.2209 19.9481 12.5639 19.4149C13.0385 18.6773 12.8794 18.9311 12.9171 18.8357C13.3541 17.7318 14.0381 16.8964 14.8383 16.3392C15.1755 16.1045 15.2191 15.2539 15.0227 14.7377C14.9341 14.7567 14.8126 14.7998 14.6669 14.8652C14.5837 14.9025 14.4946 14.9461 14.3951 14.9975C14.3785 15.0061 13.8898 15.2697 13.7909 15.3122C12.7833 15.7455 11.0119 15.1666 9.78105 14.3424C9.15455 13.9216 9.20521 13.2392 9.60976 12.2748C9.66364 12.1464 9.72315 12.0143 9.79776 11.8553C10.1429 11.12 10.1867 11.0181 10.185 10.9775C10.1616 10.3892 8.4802 9.48989 8.20497 9.5907C8.18531 9.59787 8.11993 10.0363 8.14496 10.8676C8.14799 10.965 8.14799 10.965 8.15125 11.063C8.20304 12.617 8.17495 12.916 7.5706 13.0918C7.05082 13.2437 6.61782 13.1331 6.33535 12.7698C6.15777 12.5414 6.08885 12.3319 5.97575 11.8399L5.96596 11.7973C5.87735 11.4126 5.81619 11.255 5.74623 11.1978C5.49351 10.9913 5.3001 10.7693 5.16258 10.5297C4.84639 9.97878 4.84522 9.52854 5.00901 8.72287C5.06355 8.45463 5.07851 8.37129 5.08849 8.26066C5.11669 7.94716 4.92664 7.73942 4.56053 7.64401C4.39911 7.60195 4.23298 7.59608 4.12326 7.62121C4.12223 7.62145 4.18752 7.56827 4.18752 7.41667L4.18528 7.43742C3.40156 8.77691 2.95238 10.336 2.95238 12ZM12 2.95238C8.98608 2.95238 6.31644 4.42593 4.6722 6.69191L4.8007 6.72241C5.57666 6.92463 6.11225 7.51004 6.03703 8.34612C6.02262 8.50585 6.00466 8.60587 5.9423 8.91261C5.82167 9.50599 5.82235 9.76597 5.98858 10.0556C6.06604 10.1906 6.18295 10.3248 6.349 10.4604C6.64826 10.7052 6.75519 10.9808 6.89404 11.5835L6.90393 11.6265C6.983 11.9705 7.029 12.1104 7.08724 12.1853C7.10506 12.2082 7.12186 12.2186 7.18008 12.2087C7.18761 12.1714 7.19456 12.1235 7.19995 12.066C7.21945 11.8585 7.2177 11.644 7.1994 11.0947C7.19612 10.9961 7.19612 10.9961 7.19301 10.8962C7.15091 9.49786 7.2355 8.93054 7.87803 8.69619C8.71858 8.38832 11.0855 9.65427 11.1367 10.9397C11.1442 11.1301 11.0865 11.3218 10.9681 11.5979C10.9289 11.6895 10.884 11.7875 10.8208 11.921L10.6599 12.26C10.5904 12.408 10.536 12.5288 10.488 12.6432C10.2512 13.2076 10.2298 13.4966 10.3115 13.5515C11.2929 14.2086 12.8007 14.7013 13.4149 14.4372C13.4683 14.4143 13.9007 14.181 13.9577 14.1515C14.0717 14.0926 14.1761 14.0416 14.277 13.9963C14.9937 13.6747 15.5258 13.6199 15.8165 14.1823C16.2627 15.048 16.2302 16.5307 15.3825 17.1208C14.7318 17.5739 14.1686 18.2618 13.8027 19.1862C13.7564 19.3032 13.692 19.4211 13.5987 19.5699C13.5519 19.6446 13.3816 19.9042 13.3649 19.9302C13.1155 20.3178 13.0047 20.5696 13.0047 20.7769C13.0046 20.85 13.0196 20.9179 13.0542 20.9858C16.0037 20.6443 18.5197 18.8844 19.9041 16.4063C19.587 16.3673 19.3769 16.276 18.7645 15.9694C18.7004 15.9374 18.7004 15.9374 18.6368 15.9063C18.3708 15.7765 18.2587 15.7199 18.1021 15.6321C17.4791 15.2829 17.0786 14.914 16.9654 14.4628C16.9407 14.3877 16.9407 14.3877 16.9435 14.394C16.7671 13.7306 16.2722 13.1961 15.6446 12.9789C15.3555 12.8792 15.0445 12.8074 14.735 12.7599C14.5499 12.7316 14.409 12.7178 14.3347 12.7138L14.1668 12.6731C13.3394 12.3039 13.3532 11.5575 13.8853 10.8149C14.0448 10.5922 14.2505 10.364 14.4922 10.1317C14.6842 9.94719 14.8884 9.77016 15.0925 9.60603C15.1887 9.52867 15.2688 9.46689 15.3268 9.42361C15.8215 8.87297 16.2261 8.65757 16.7811 8.8129C17.2543 8.94479 17.6357 8.38289 17.3255 7.956L17.3192 7.94734L17.3067 7.92978C17.1758 7.75166 16.9893 7.65955 16.8332 7.68054C16.3287 7.7497 15.6373 7.58979 14.8218 7.29596C14.0799 7.02944 13.5124 6.39838 13.3449 5.62347C13.294 5.38752 13.2646 5.13719 13.2543 4.87429C13.2323 4.30964 13.2979 3.71464 13.4203 3.12605C13.4246 3.10536 13.4289 3.08499 13.4332 3.06494C12.967 2.99101 12.488 2.95238 12 2.95238ZM14.3644 3.26441L14.3527 3.31985C14.2449 3.8386 14.1874 4.36013 14.206 4.83722C14.2142 5.04749 14.2372 5.2435 14.2758 5.42245C14.3728 5.87123 14.7069 6.24272 15.1442 6.39981C15.8156 6.6417 16.4048 6.77798 16.705 6.73682C17.2301 6.66624 17.748 6.92206 18.0819 7.37676L18.0882 7.38542L18.1022 7.40495C18.9326 8.54726 17.8745 10.1063 16.5249 9.73019C16.4101 9.69806 16.2998 9.75965 16.0066 10.0922L15.9291 10.1627C15.8834 10.1959 15.7991 10.2599 15.6893 10.3482C15.5057 10.4959 15.3221 10.6551 15.1522 10.8184C14.9492 11.0135 14.7807 11.2004 14.6594 11.3697C14.4699 11.6341 14.4349 11.7181 14.4987 11.7711C14.598 11.7801 14.7273 11.7952 14.8793 11.8185C15.2415 11.8741 15.6068 11.9584 15.9557 12.0788C16.8835 12.3999 17.6063 13.1804 17.8707 14.1782L17.8684 14.1662C17.9163 14.3505 18.1538 14.5693 18.5678 14.8013C18.7031 14.8772 18.8049 14.9286 19.0542 15.0502C19.1235 15.0842 19.1235 15.0842 19.1907 15.1178L19.3406 15.1924C19.758 15.3985 19.8964 15.4503 20.0739 15.467C20.1836 15.4774 20.281 15.4612 20.3828 15.4092C20.8118 14.3561 21.0476 13.2056 21.0476 12C21.0476 7.82102 18.2146 4.30393 14.3644 3.26441Z" fill="#0071D1"/>
</svg>
