<svg xmlns="http://www.w3.org/2000/svg" width="32" height="32" viewBox="0 0 32 32"><g transform="translate(-146 -926)"><g transform="translate(146 926)" fill="#fbf2f2" stroke="#c3362e" stroke-width="1"><circle cx="16" cy="16" r="16" stroke="none"/><circle cx="16" cy="16" r="15.5" fill="none"/></g><g transform="translate(153 933)"><path d="M1.875,13.5A1.875,1.875,0,0,1,0,11.748l0-.124V1.875A1.875,1.875,0,0,1,1.752,0l.124,0H7.547a.375.375,0,0,1,.067.744L7.547.75H1.875A1.125,1.125,0,0,0,.755,1.766L.75,1.875v9.75a1.125,1.125,0,0,0,1.017,1.12l.109.005h5.79V7.918l.007-.07a.3.3,0,0,1,.593.07l.009.026a.83.83,0,0,0,.378.3l.063.009a.521.521,0,0,0,.292-.143c.088-.072.159-.157.159-.188l.007-.07a.3.3,0,0,1,.593.07l.009.026a.821.821,0,0,0,.377.3l.063.009a.521.521,0,0,0,.292-.143c.087-.072.158-.157.158-.188l.007-.07a.3.3,0,0,1,.593.07V12.75h.36a1.125,1.125,0,0,0,1.12-1.017l.005-.109V5.991a.375.375,0,0,1,.744-.067l.006.067v5.634A1.875,1.875,0,0,1,11.748,13.5l-.124,0Zm6.39-.75h2.4V8.72l-.068.036a.948.948,0,0,1-.284.085l-.1.007A1.1,1.1,0,0,1,9.5,8.527l-.032-.033-.032.033a1.1,1.1,0,0,1-.718.322.9.9,0,0,1-.381-.092l-.07-.036ZM1.932,11.1a.3.3,0,0,1-.06-.594l.06-.006h.516V7.766l-.3.3a.3.3,0,0,1-.463-.377l.038-.047.815-.817a.3.3,0,0,1,.378-.038l0,0a.239.239,0,0,1,.041.033l0,0,.815.817a.3.3,0,0,1-.378.462L3.351,8.07l-.3-.3V10.5H5.016V7.767l-.3.3a.3.3,0,0,1-.463-.377l.038-.047L5.1,6.829a.3.3,0,0,1,.378-.038l0,0a.323.323,0,0,1,.037.031l0,0,.816.817a.3.3,0,0,1-.378.462L5.919,8.07l-.3-.3V10.5H6.15a.3.3,0,0,1,.061.594L6.15,11.1ZM7.5,3a3,3,0,1,1,3,3A3,3,0,0,1,7.5,3Zm.6,0A2.4,2.4,0,1,0,10.5.6,2.4,2.4,0,0,0,8.1,3Zm1.243,1.22a.31.31,0,0,1-.036-.391l.041-.049.726-.726-.835-.835a.309.309,0,0,1,.387-.477l.049.041.835.835.835-.835a.308.308,0,0,1,.477.387l-.04.049-.835.835.726.726a.309.309,0,0,1-.387.477l-.049-.041L10.51,3.49l-.726.726a.316.316,0,0,1-.223.093A.305.305,0,0,1,9.343,4.219Z" transform="translate(2.25 2.25)" fill="#d32222"/></g></g></svg>