<svg xmlns="http://www.w3.org/2000/svg" width="32" height="32" viewBox="0 0 32 32"><g transform="translate(-146 -926)"><g transform="translate(146 926)" fill="#fbf2f2" stroke="#c3362e" stroke-width="1"><circle cx="16" cy="16" r="16" stroke="none"/><circle cx="16" cy="16" r="15.5" fill="none"/></g><g transform="translate(153 933)"><g fill="#d32222" stroke="rgba(112,112,112,0)" stroke-width="0.2" opacity="0"><rect width="18" height="18" stroke="none"/><rect x="0.1" y="0.1" width="17.8" height="17.8" fill="none"/></g><path d="M1.1,15A1.075,1.075,0,0,1,0,13.954V2.569A1.075,1.075,0,0,1,1.1,1.522H2.289A1.192,1.192,0,0,1,3.416.729H4.691A1.568,1.568,0,0,1,6.662.14a.446.446,0,0,1,.223.591.451.451,0,0,1-.6.222.664.664,0,0,0-.9.374.449.449,0,0,1-.423.3H3.416a.288.288,0,0,0-.293.282v.283H6.475a.447.447,0,1,1,0,.894h-3.8a.447.447,0,0,1-.449-.446V2.417H1.1a.184.184,0,0,0-.2.152V13.954a.184.184,0,0,0,.2.152h9.8a.185.185,0,0,0,.2-.152V7.146a.449.449,0,0,1,.9,0v6.808A1.075,1.075,0,0,1,10.9,15ZM6.426,9.816a.447.447,0,1,1,0-.894H9.3a.447.447,0,1,1,0,.894Zm-3.8-.005a.374.374,0,0,1-.374-.372V7.146a.374.374,0,0,1,.374-.373h2.24a.374.374,0,0,1,.374.373V9.439a.374.374,0,0,1-.374.372ZM3,9.067H4.49V7.519H3Zm3.426-1.4a.447.447,0,1,1,0-.894H9.3a.447.447,0,1,1,0,.894ZM7.5,3.051a3,3,0,1,1,3,3A3,3,0,0,1,7.5,3.051Zm.75,0A2.25,2.25,0,1,0,10.5.8,2.253,2.253,0,0,0,8.25,3.051Zm1.084,1.22A.309.309,0,0,1,9.3,3.881l.04-.049.725-.725-.835-.835a.31.31,0,0,1-.093-.224.307.307,0,0,1,.307-.306.308.308,0,0,1,.174.053l.05.04.834.834.835-.834a.311.311,0,0,1,.223-.094.306.306,0,0,1,.217.09.31.31,0,0,1,.037.391l-.04.049-.834.835.725.725a.315.315,0,0,1,.093.221.307.307,0,0,1-.089.22.3.3,0,0,1-.217.089.318.318,0,0,1-.175-.052l-.049-.04L10.5,3.542l-.725.725a.314.314,0,0,1-.223.094A.309.309,0,0,1,9.334,4.271Z" transform="translate(3 1.5)" fill="#d32222"/></g></g></svg>